<?xml version="1.0" encoding="UTF-8" standalone="no"?>
<svg
   xmlns:dc="http://purl.org/dc/elements/1.1/"
   xmlns:cc="http://creativecommons.org/ns#"
   xmlns:rdf="http://www.w3.org/1999/02/22-rdf-syntax-ns#"
   xmlns:svg="http://www.w3.org/2000/svg"
   xmlns="http://www.w3.org/2000/svg"
   width="245" height="245" viewBox="0 0 245 245"
   xml:space="preserve"
   id="svg2"
   version="1.1">
   <g transform="matrix(0.31999998,0,0,0.31999998,0,2.04e-5)" id="g10">
    <g id="g12"><g clip-path="url(#clipPath18)" id="g14">
      <g transform="scale(4.21875)" id="g20">
          <path id="path22" style="fill:#FFFFFF;fill-opacity:1;fill-rule:nonzero;stroke:none" d="m 77,12.5 c 0,0.820762 -0.08006,1.633637 -0.240189,2.438627 -0.160125,0.80499 -0.397232,1.586628 -0.711326,2.344912 -0.314095,0.758285 -0.699135,1.478647 -1.155121,2.161085 -0.456001,0.68244 -0.974175,1.313843 -1.554535,1.894209 -0.580368,0.580366 -1.211769,1.098543 -1.894203,1.554535 -0.682442,0.45599 -1.402809,0.84103 -2.161095,1.155123 -0.758278,0.314092 -1.539917,0.551198 -2.344902,0.711322 C 66.133636,24.919937 65.320763,24.999998 64.5,25 c -0.820763,-2e-6 -1.63364,-0.08006 -2.438633,-0.240185 -0.804993,-0.160124 -1.586632,-0.397232 -2.344917,-0.711324 -0.758286,-0.314093 -1.478646,-0.699133 -2.161083,-1.155123 -0.682442,-0.455992 -1.313843,-0.974169 -1.894207,-1.554535 -0.580369,-0.580366 -1.098549,-1.211769 -1.554539,-1.894209 -0.45599,-0.682438 -0.841034,-1.4028 -1.155125,-2.161085 C 52.637405,16.525255 52.400299,15.743617 52.240177,14.938627 52.080055,14.133637 51.999996,13.320762 52,12.5 c -4e-6,-0.820762 0.08006,-1.633638 0.240177,-2.438629 C 52.400299,9.2563791 52.637409,8.474741 52.9515,7.7164569 53.265591,6.9581718 53.650631,6.2378101 54.106621,5.5553718 54.562611,4.8729334 55.080791,4.2415309 55.66116,3.661165 56.241524,3.0807989 56.872925,2.5626204 57.555363,2.1066296 58.237801,1.6506388 58.95816,1.2655976 59.716446,0.95150572 60.474735,0.63741386 61.256374,0.40030661 62.061363,0.24018396 62.86636,0.08006132 63.679237,0 64.5,0 c 0.820763,0 1.633636,0.08006132 2.438629,0.24018396 0.804985,0.16012265 1.586624,0.3972299 2.344902,0.71132176 0.758286,0.31409188 1.478653,0.69913308 2.161095,1.15512388 0.682434,0.4559908 1.313835,0.9741693 1.894203,1.5545354 0.58036,0.5803659 1.098534,1.2117679 1.554535,1.8942063 0.455986,0.6824384 0.841026,1.4027996 1.155121,2.1610846 0.314094,0.7582851 0.551201,1.5399223 0.711326,2.3449141 C 76.919937,10.866362 77,11.679238 77,12.5 Z" />
          <path id="path24" style="fill:#FFFFFF;fill-opacity:1;fill-rule:nonzero;stroke:none" d="m 103,12.5 c -1e-5,0.820762 -0.0801,1.633637 -0.24019,2.438627 -0.16012,0.80499 -0.39723,1.586628 -0.71132,2.344912 -0.3141,0.758285 -0.69914,1.478647 -1.15513,2.161085 -0.45599,0.68244 -0.974171,1.313843 -1.554531,1.894209 -0.580376,0.580366 -1.211777,1.098543 -1.894218,1.554535 -0.682442,0.45599 -1.402802,0.84103 -2.16108,1.155123 -0.758285,0.314092 -1.539924,0.551198 -2.344909,0.711322 C 92.133636,24.919937 91.320763,24.999998 90.5,25 c -0.82077,-2e-6 -1.633652,-0.08006 -2.438644,-0.240185 -0.804985,-0.160124 -1.586625,-0.397232 -2.34491,-0.711324 -0.758293,-0.314093 -1.478653,-0.699133 -2.161087,-1.155123 -0.682442,-0.455992 -1.313843,-0.974169 -1.894203,-1.554535 -0.580368,-0.580366 -1.098549,-1.211769 -1.554535,-1.894209 -0.455994,-0.682438 -0.841034,-1.4028 -1.155129,-2.161085 C 78.637398,16.525255 78.400291,15.743617 78.240173,14.938627 78.080055,14.133637 77.999992,13.320762 78,12.5 c -8e-6,-0.820762 0.08006,-1.633638 0.240173,-2.438629 0.160118,-0.8049919 0.397225,-1.58663 0.711319,-2.3449141 0.314095,-0.7582851 0.699135,-1.4786468 1.155129,-2.1610851 0.455986,-0.6824384 0.974167,-1.3138409 1.554535,-1.8942068 0.58036,-0.5803661 1.211761,-1.0985446 1.894195,-1.5545354 0.682442,-0.4559908 1.402802,-0.841032 2.161095,-1.15512388 C 86.474731,0.63741386 87.256371,0.40030661 88.061363,0.24018396 88.866348,0.08006132 89.67923,0 90.5,0 c 0.820763,0 1.633636,0.08006132 2.438622,0.24018396 0.804985,0.16012265 1.586624,0.3972299 2.344909,0.71132176 0.758278,0.31409188 1.478638,0.69913308 2.16108,1.15512388 0.682441,0.4559908 1.313842,0.9741693 1.894218,1.5545354 0.58036,0.5803659 1.098541,1.2117679 1.554531,1.8942063 0.45599,0.6824384 0.84103,1.4027996 1.15513,2.1610846 0.31409,0.7582851 0.5512,1.5399223 0.71132,2.3449141 0.16012,0.804992 0.24018,1.617868 0.24019,2.43863 z" />
          <path id="path26" style="fill:#FFFFFF;fill-opacity:1;fill-rule:nonzero;stroke:none" d="m 129,12.5 c 0,0.820762 -0.0801,1.633637 -0.24019,2.438627 -0.16014,0.80499 -0.39725,1.586628 -0.71133,2.344912 -0.3141,0.758285 -0.69915,1.478647 -1.15513,2.161085 -0.45599,0.68244 -0.97417,1.313843 -1.55453,1.894209 -0.58037,0.580366 -1.21177,1.098543 -1.89421,1.554535 -0.68244,0.45599 -1.4028,0.84103 -2.16109,1.155123 -0.75828,0.314092 -1.53992,0.551198 -2.34491,0.711322 C 118.13363,24.919937 117.32075,24.999998 116.5,25 c -0.82076,-2e-6 -1.63364,-0.08006 -2.43864,-0.240185 -0.805,-0.160124 -1.58664,-0.397232 -2.34492,-0.711324 -0.75829,-0.314093 -1.47865,-0.699133 -2.16108,-1.155123 -0.68244,-0.455992 -1.31384,-0.974169 -1.89421,-1.554535 -0.58038,-0.580366 -1.09856,-1.211769 -1.55454,-1.894209 -0.45599,-0.682438 -0.84103,-1.4028 -1.15512,-2.161085 -0.3141,-0.758284 -0.5512,-1.539922 -0.71132,-2.344912 C 104.08005,14.133637 103.99999,13.320762 104,12.5 c -1e-5,-0.820762 0.08,-1.633638 0.24017,-2.438629 0.16011,-0.8049919 0.39722,-1.58663 0.71132,-2.3449141 0.31409,-0.7582851 0.69913,-1.4786468 1.15512,-2.1610851 0.45598,-0.6824384 0.97416,-1.3138409 1.55454,-1.8942068 0.58037,-0.5803661 1.21177,-1.0985446 1.8942,-1.5545354 0.68244,-0.4559908 1.4028,-0.841032 2.16109,-1.15512388 0.75828,-0.31409186 1.53992,-0.55119911 2.34492,-0.71132176 C 114.86636,0.08006132 115.67924,0 116.5,0 c 0.82075,0 1.63363,0.08006132 2.43861,0.24018396 0.80499,0.16012265 1.58662,0.3972299 2.34491,0.71132176 0.75829,0.31409188 1.47865,0.69913308 2.16109,1.15512388 0.68244,0.4559908 1.31384,0.9741693 1.89421,1.5545354 0.58036,0.5803659 1.09854,1.2117679 1.55453,1.8942063 0.45598,0.6824384 0.84103,1.4027996 1.15513,2.1610846 0.31408,0.7582851 0.55119,1.5399223 0.71133,2.3449141 C 128.91994,10.866362 129,11.679238 129,12.5 Z" />
          <path id="path28" style="fill:#FFFFFF;fill-opacity:1;fill-rule:nonzero;stroke:none" d="m 51,38.5 c 0,0.820759 -0.08006,1.633636 -0.240185,2.438625 -0.160122,0.804989 -0.397232,1.586624 -0.711323,2.34491 -0.314094,0.758282 -0.699138,1.478645 -1.155128,2.161087 -0.45599,0.682438 -0.974167,1.313843 -1.554531,1.894211 -0.580368,0.580364 -1.211773,1.098541 -1.894211,1.554531 -0.682442,0.45599 -1.402805,0.841034 -2.161087,1.155125 -0.758286,0.31409 -1.539921,0.5512 -2.34491,0.711322 C 40.133636,50.919937 39.320759,51 38.5,51 37.679234,51 36.866356,50.919937 36.061367,50.759815 35.256374,50.599693 34.474735,50.362583 33.71645,50.048492 32.958164,49.734398 32.237804,49.349354 31.555367,48.893364 30.872929,48.437374 30.241528,47.919197 29.661161,47.338833 29.080795,46.758465 28.562614,46.12706 28.106623,45.444622 27.650633,44.76218 27.265593,44.041817 26.9515,43.283535 26.637407,42.525249 26.400301,41.743614 26.240181,40.938625 26.080057,40.133636 25.999998,39.320759 26,38.5 c -2e-6,-0.820766 0.08006,-1.633644 0.240179,-2.438633 0.160124,-0.804993 0.39723,-1.586632 0.711323,-2.344917 0.314091,-0.758286 0.699131,-1.478646 1.155123,-2.161083 0.455991,-0.682438 0.97417,-1.313839 1.554536,-1.894206 0.580367,-0.580366 1.211768,-1.098545 1.894204,-1.554536 0.682436,-0.455992 1.402799,-0.841032 2.161085,-1.155123 0.758285,-0.314091 1.539924,-0.551197 2.344917,-0.711319 C 36.866356,26.080061 37.679234,26 38.5,26 c 0.820759,0 1.633636,0.08006 2.438625,0.240183 0.804989,0.160122 1.586624,0.397228 2.34491,0.711319 0.758282,0.314091 1.478645,0.699131 2.161087,1.155123 0.682438,0.455991 1.313843,0.97417 1.894211,1.554536 0.580364,0.580367 1.098541,1.211768 1.554531,1.894204 0.45599,0.682436 0.841034,1.402799 1.155125,2.161085 0.31409,0.758285 0.5512,1.539924 0.711322,2.344917 C 50.919937,36.866356 51,37.679234 51,38.5 Z" />
          <path id="path30" style="fill:#FFFFFF;fill-opacity:1;fill-rule:nonzero;stroke:none" d="m 155,38.5 c 0,0.820759 -0.0801,1.633636 -0.24019,2.438625 -0.16011,0.804989 -0.39722,1.586624 -0.71132,2.34491 -0.3141,0.758282 -0.69914,1.478645 -1.15512,2.161087 -0.45601,0.682438 -0.97418,1.313843 -1.55453,1.894211 -0.58037,0.580364 -1.21178,1.098541 -1.89423,1.554531 -0.68243,0.45599 -1.4028,0.841034 -2.16109,1.155125 -0.75828,0.31409 -1.53993,0.5512 -2.34491,0.711322 C 144.13362,50.919937 143.32075,51 142.5,51 c -0.82077,0 -1.63365,-0.08006 -2.43864,-0.240185 -0.80498,-0.160122 -1.58661,-0.397232 -2.3449,-0.711323 -0.75828,-0.314094 -1.47864,-0.699138 -2.16109,-1.155128 -0.68243,-0.45599 -1.31384,-0.974167 -1.89421,-1.554531 -0.58037,-0.580368 -1.09854,-1.211773 -1.55453,-1.894211 -0.45601,-0.682442 -0.84105,-1.402805 -1.15514,-2.161087 -0.3141,-0.758286 -0.55121,-1.539921 -0.71132,-2.34491 C 130.08005,40.133636 129.99998,39.320759 130,38.5 c -2e-5,-0.820766 0.08,-1.633644 0.24017,-2.438633 0.16011,-0.804993 0.39722,-1.586632 0.71132,-2.344917 0.31409,-0.758286 0.69913,-1.478646 1.15514,-2.161083 0.45599,-0.682438 0.97416,-1.313839 1.55453,-1.894206 0.58037,-0.580366 1.21178,-1.098545 1.89421,-1.554536 0.68245,-0.455992 1.40281,-0.841032 2.16109,-1.155123 0.75829,-0.314091 1.53992,-0.551197 2.3449,-0.711319 C 140.86635,26.080061 141.67923,26 142.5,26 c 0.82075,0 1.63362,0.08006 2.43861,0.240183 0.80498,0.160122 1.58663,0.397228 2.34491,0.711319 0.75829,0.314091 1.47866,0.699131 2.16109,1.155123 0.68245,0.455991 1.31386,0.97417 1.89423,1.554536 0.58035,0.580367 1.09852,1.211768 1.55453,1.894204 0.45598,0.682436 0.84102,1.402799 1.15512,2.161085 0.3141,0.758285 0.55121,1.539924 0.71132,2.344917 C 154.91994,36.866356 155,37.679234 155,38.5 Z" />
          <path id="path32" style="fill:#FFFFFF;fill-opacity:1;fill-rule:nonzero;stroke:none" d="m 25,64.5 c -2e-6,0.820763 -0.08006,1.633636 -0.240185,2.438629 -0.160124,0.804985 -0.397232,1.586624 -0.711324,2.344902 -0.314093,0.758286 -0.699133,1.478653 -1.155123,2.161095 -0.455992,0.682434 -0.974169,1.313835 -1.554535,1.894203 -0.580366,0.58036 -1.211769,1.098534 -1.894209,1.554535 -0.682438,0.455986 -1.4028,0.841026 -2.161085,1.155121 -0.758284,0.314094 -1.539922,0.551201 -2.344912,0.711326 C 14.133637,76.919937 13.320762,77 12.5,77 11.679238,77 10.866362,76.919937 10.061371,76.759811 9.2563791,76.599686 8.474741,76.362579 7.7164569,76.048485 6.9581718,75.73439 6.2378101,75.34935 5.5553718,74.893364 4.8729334,74.437363 4.2415309,73.919189 3.661165,73.338829 3.0807989,72.758461 2.5626204,72.12706 2.1066296,71.444626 1.6506388,70.762184 1.2655976,70.041817 0.95150572,69.283531 0.63741386,68.525253 0.40030661,67.743614 0.24018396,66.938629 0.08006132,66.133636 0,65.320763 0,64.5 0,63.679237 0.08006132,62.86636 0.24018396,62.061367 0.40030661,61.256374 0.63741386,60.474735 0.95150572,59.71645 1.2655976,58.958164 1.6506388,58.237804 2.1066296,57.555367 2.5626204,56.872925 3.0807989,56.241524 3.661165,55.66116 4.2415309,55.080795 4.8729329,54.562614 5.5553713,54.106621 6.2378097,53.650631 6.9581709,53.265591 7.7164559,52.9515 8.474741,52.637409 9.2563782,52.400303 10.06137,52.240181 10.866362,52.080059 11.679238,52 12.5,52 c 0.820762,0 1.633637,0.08006 2.438627,0.240185 0.80499,0.160118 1.586628,0.397224 2.344912,0.711315 0.758285,0.314091 1.478647,0.699131 2.161085,1.155125 0.68244,0.455989 1.313843,0.97417 1.894209,1.554535 0.580366,0.580364 1.098543,1.211765 1.554535,1.894203 0.45599,0.682438 0.84103,1.402797 1.155123,2.161083 0.314092,0.758289 0.551198,1.539928 0.711322,2.344917 C 24.919937,62.86636 24.999998,63.679237 25,64.5 Z" />
          <path id="path34" style="fill:#FFFFFF;fill-opacity:1;fill-rule:nonzero;stroke:none" d="m 181,64.5 c -2e-5,0.820763 -0.0801,1.633636 -0.24022,2.438629 -0.16012,0.804985 -0.39723,1.586624 -0.71132,2.344902 -0.3141,0.758286 -0.69914,1.478653 -1.15513,2.161095 -0.45598,0.682434 -0.97416,1.313835 -1.55451,1.894203 -0.58037,0.58036 -1.21176,1.098534 -1.89421,1.554535 -0.68243,0.455986 -1.4028,0.841026 -2.16109,1.155121 -0.75828,0.314094 -1.53991,0.551201 -2.34489,0.711326 C 170.13362,76.919937 169.32076,77 168.5,77 c -0.82077,0 -1.63365,-0.08006 -2.43864,-0.240189 -0.80501,-0.160125 -1.58664,-0.397232 -2.34491,-0.711326 -0.75829,-0.314095 -1.47866,-0.699135 -2.16109,-1.155121 -0.68245,-0.456001 -1.31384,-0.974175 -1.89421,-1.554535 -0.58037,-0.580368 -1.09854,-1.211769 -1.55455,-1.894203 -0.45598,-0.682442 -0.84102,-1.402809 -1.15511,-2.161095 -0.3141,-0.758278 -0.55121,-1.539917 -0.71133,-2.344902 C 156.08005,66.133636 155.99998,65.320763 156,64.5 c -2e-5,-0.820763 0.08,-1.63364 0.24016,-2.438633 0.16012,-0.804993 0.39723,-1.586632 0.71133,-2.344917 0.31409,-0.758286 0.69913,-1.478646 1.15511,-2.161083 0.45601,-0.682442 0.97418,-1.313843 1.55455,-1.894207 0.58037,-0.580365 1.21176,-1.098546 1.89421,-1.554539 0.68243,-0.45599 1.4028,-0.84103 2.16109,-1.155121 0.75827,-0.314091 1.5399,-0.551197 2.34491,-0.711319 C 166.86635,52.080059 167.67923,52 168.5,52 c 0.82076,0 1.63362,0.08006 2.43863,0.240185 0.80498,0.160118 1.58661,0.397224 2.34489,0.711315 0.75829,0.314091 1.47866,0.699131 2.16109,1.155125 0.68245,0.455989 1.31384,0.97417 1.89421,1.554535 0.58035,0.580364 1.09853,1.211765 1.55452,1.894203 0.45599,0.682438 0.84104,1.402797 1.15514,2.161083 0.31408,0.758289 0.55119,1.539928 0.71132,2.344917 0.16011,0.804997 0.24018,1.617874 0.2402,2.438637 z" />
          <path id="path36" style="fill:#FFFFFF;fill-opacity:1;fill-rule:nonzero;stroke:none" d="m 25,90.5 c -2e-6,0.820763 -0.08006,1.633636 -0.240185,2.438622 -0.160124,0.804985 -0.397232,1.586624 -0.711324,2.344909 -0.314093,0.758278 -0.699133,1.478638 -1.155123,2.16108 -0.455992,0.682441 -0.974169,1.313842 -1.554535,1.894218 -0.580366,0.58036 -1.211769,1.098541 -1.894209,1.554531 -0.682438,0.45599 -1.4028,0.84103 -2.161085,1.15513 -0.758284,0.31409 -1.539922,0.5512 -2.344912,0.71132 -0.80499,0.16012 -1.617865,0.24018 -2.438627,0.24019 -0.820762,-1e-5 -1.633638,-0.0801 -2.438629,-0.24019 -0.8049919,-0.16012 -1.58663,-0.39723 -2.3449141,-0.71132 -0.7582851,-0.3141 -1.4786468,-0.69914 -2.1610851,-1.15513 C 4.8729334,100.43737 4.2415309,99.919189 3.661165,99.338829 3.0807989,98.758453 2.5626204,98.127052 2.1066296,97.444611 1.6506388,96.762169 1.2655976,96.041809 0.95150572,95.283531 0.63741386,94.525246 0.40030661,93.743607 0.24018396,92.938622 0.08006132,92.133636 0,91.320763 0,90.5 0,89.67923 0.08006132,88.866348 0.24018396,88.061356 0.40030661,87.256371 0.63741386,86.474731 0.95150572,85.716446 1.2655976,84.958153 1.6506388,84.237793 2.1066296,83.555359 2.5626204,82.872917 3.0807989,82.241516 3.661165,81.661156 4.2415309,81.080788 4.8729329,80.562614 5.5553713,80.106628 6.2378097,79.650627 6.9581709,79.265587 7.7164559,78.9515 8.474741,78.637413 9.2563782,78.400307 10.06137,78.240181 10.866362,78.080063 11.679238,78 12.5,78 c 0.820762,0 1.633637,0.08006 2.438627,0.240181 0.80499,0.160126 1.586628,0.397232 2.344912,0.711319 0.758285,0.314087 1.478647,0.699127 2.161085,1.155128 0.68244,0.455986 1.313843,0.97416 1.894209,1.554528 0.580366,0.58036 1.098543,1.211761 1.554535,1.894195 0.45599,0.682442 0.84103,1.402802 1.155123,2.161095 0.314092,0.758285 0.551198,1.539925 0.711322,2.344917 C 24.919937,88.866348 24.999998,89.67923 25,90.5 Z" />
          <path id="path38" style="fill:#FFFFFF;fill-opacity:1;fill-rule:nonzero;stroke:none" d="m 181,90.5 c -2e-5,0.820763 -0.0801,1.633636 -0.24022,2.438622 -0.16012,0.804985 -0.39723,1.586624 -0.71132,2.344909 -0.3141,0.758278 -0.69914,1.478638 -1.15513,2.16108 -0.45598,0.682441 -0.97416,1.313842 -1.55451,1.894218 -0.58037,0.58036 -1.21176,1.098541 -1.89421,1.554531 -0.68243,0.45599 -1.4028,0.84103 -2.16109,1.15513 -0.75828,0.31409 -1.53991,0.5512 -2.34489,0.71132 -0.80501,0.16012 -1.61787,0.24018 -2.43863,0.24019 -0.82077,-1e-5 -1.63365,-0.0801 -2.43864,-0.24019 -0.80501,-0.16012 -1.58664,-0.39723 -2.34491,-0.71132 -0.75829,-0.3141 -1.47866,-0.69914 -2.16109,-1.15513 -0.68245,-0.45599 -1.31384,-0.974171 -1.89421,-1.554531 -0.58037,-0.580376 -1.09854,-1.211777 -1.55455,-1.894218 -0.45598,-0.682442 -0.84102,-1.402802 -1.15511,-2.16108 -0.3141,-0.758285 -0.55121,-1.539924 -0.71133,-2.344909 C 156.08005,92.133636 155.99998,91.320763 156,90.5 c -2e-5,-0.82077 0.08,-1.633652 0.24016,-2.438644 0.16012,-0.804985 0.39723,-1.586625 0.71133,-2.34491 0.31409,-0.758293 0.69913,-1.478653 1.15511,-2.161087 0.45601,-0.682442 0.97418,-1.313843 1.55455,-1.894203 0.58037,-0.580368 1.21176,-1.098542 1.89421,-1.554528 0.68243,-0.456001 1.4028,-0.841041 2.16109,-1.155128 0.75827,-0.314087 1.5399,-0.551193 2.34491,-0.711319 C 166.86635,78.080063 167.67923,78 168.5,78 c 0.82076,0 1.63362,0.08006 2.43863,0.240181 0.80498,0.160126 1.58661,0.397232 2.34489,0.711319 0.75829,0.314087 1.47866,0.699127 2.16109,1.155128 0.68245,0.455986 1.31384,0.97416 1.89421,1.554528 0.58035,0.58036 1.09853,1.211761 1.55452,1.894195 0.45599,0.682442 0.84104,1.402802 1.15514,2.161095 0.31408,0.758285 0.55119,1.539925 0.71132,2.344917 0.16011,0.804985 0.24018,1.617867 0.2402,2.438637 z" />
          <path id="path40" style="fill:#FFFFFF;fill-opacity:1;fill-rule:nonzero;stroke:none" d="m 25,116.5 c -2e-6,0.82075 -0.08006,1.63363 -0.240185,2.43861 -0.160124,0.80499 -0.397232,1.58662 -0.711324,2.34491 -0.314093,0.75829 -0.699133,1.47865 -1.155123,2.16109 -0.455992,0.68244 -0.974169,1.31384 -1.554535,1.89421 -0.580366,0.58036 -1.211769,1.09854 -1.894209,1.55453 -0.682438,0.45598 -1.4028,0.84103 -2.161085,1.15513 -0.758284,0.31408 -1.539922,0.55119 -2.344912,0.71133 C 14.133637,128.91994 13.320762,129 12.5,129 c -0.820762,0 -1.633638,-0.0801 -2.438629,-0.24019 -0.8049919,-0.16014 -1.58663,-0.39725 -2.3449141,-0.71133 -0.7582851,-0.3141 -1.4786468,-0.69915 -2.1610851,-1.15513 -0.6824384,-0.45599 -1.3138409,-0.97417 -1.8942068,-1.55453 -0.5803661,-0.58037 -1.0985446,-1.21177 -1.5545354,-1.89421 -0.4559908,-0.68244 -0.841032,-1.4028 -1.15512388,-2.16109 C 0.63741386,120.52524 0.40030661,119.7436 0.24018396,118.93861 0.08006132,118.13363 0,117.32075 0,116.5 c 0,-0.82076 0.08006132,-1.63364 0.24018396,-2.43864 0.16012265,-0.805 0.3972299,-1.58664 0.71132176,-2.34492 0.31409188,-0.75829 0.69913308,-1.47865 1.15512388,-2.16108 0.4559908,-0.68244 0.9741693,-1.31384 1.5545354,-1.89421 0.5803659,-0.58037 1.2117679,-1.09855 1.8942063,-1.55454 0.6824384,-0.45599 1.4027996,-0.84102 2.1610846,-1.15512 C 8.474741,104.6374 9.2563782,104.4003 10.06137,104.24018 10.866362,104.08006 11.679238,104 12.5,104 c 0.820762,0 1.633637,0.0801 2.438627,0.24018 0.80499,0.16012 1.586628,0.39722 2.344912,0.71131 0.758285,0.31409 1.478647,0.69913 2.161085,1.15512 0.68244,0.45599 1.313843,0.97417 1.894209,1.55454 0.580366,0.58037 1.098543,1.21177 1.554535,1.8942 0.45599,0.68244 0.84103,1.4028 1.155123,2.16109 0.314092,0.75828 0.551198,1.53992 0.711322,2.34492 0.160124,0.805 0.240185,1.61788 0.240187,2.43864 z" />
          <path id="path42" style="fill:#FFFFFF;fill-opacity:1;fill-rule:nonzero;stroke:none" d="m 181,116.5 c -2e-5,0.82075 -0.0801,1.63363 -0.24022,2.43861 -0.16012,0.80499 -0.39723,1.58662 -0.71132,2.34491 -0.3141,0.75829 -0.69914,1.47865 -1.15513,2.16109 -0.45598,0.68244 -0.97416,1.31384 -1.55451,1.89421 -0.58037,0.58036 -1.21176,1.09854 -1.89421,1.55453 -0.68243,0.45598 -1.4028,0.84103 -2.16109,1.15513 -0.75828,0.31408 -1.53991,0.55119 -2.34489,0.71133 C 170.13362,128.91994 169.32076,129 168.5,129 c -0.82077,0 -1.63365,-0.0801 -2.43864,-0.24019 -0.80501,-0.16014 -1.58664,-0.39725 -2.34491,-0.71133 -0.75829,-0.3141 -1.47866,-0.69915 -2.16109,-1.15513 -0.68245,-0.45599 -1.31384,-0.97417 -1.89421,-1.55453 -0.58037,-0.58037 -1.09854,-1.21177 -1.55455,-1.89421 -0.45598,-0.68244 -0.84102,-1.4028 -1.15511,-2.16109 -0.3141,-0.75828 -0.55121,-1.53992 -0.71133,-2.34491 -0.16011,-0.80498 -0.24018,-1.61786 -0.24016,-2.43861 -2e-5,-0.82076 0.08,-1.63364 0.24016,-2.43864 0.16012,-0.805 0.39723,-1.58664 0.71133,-2.34492 0.31409,-0.75829 0.69913,-1.47865 1.15511,-2.16108 0.45601,-0.68244 0.97418,-1.31384 1.55455,-1.89421 0.58037,-0.58037 1.21176,-1.09855 1.89421,-1.55454 0.68243,-0.45599 1.4028,-0.84102 2.16109,-1.15512 0.75827,-0.31409 1.5399,-0.55119 2.34491,-0.71131 C 166.86635,104.08006 167.67923,104 168.5,104 c 0.82076,0 1.63362,0.0801 2.43863,0.24018 0.80498,0.16012 1.58661,0.39722 2.34489,0.71131 0.75829,0.31409 1.47866,0.69913 2.16109,1.15512 0.68245,0.45599 1.31384,0.97417 1.89421,1.55454 0.58035,0.58037 1.09853,1.21177 1.55452,1.8942 0.45599,0.68244 0.84104,1.4028 1.15514,2.16109 0.31408,0.75828 0.55119,1.53992 0.71132,2.34492 0.16011,0.805 0.24018,1.61788 0.2402,2.43864 z" />
          <path id="path44" style="fill:#FFFFFF;fill-opacity:1;fill-rule:nonzero;stroke:none" d="m 51,142.5 c 0,0.82075 -0.08006,1.63362 -0.240185,2.43861 -0.160122,0.80498 -0.397232,1.58663 -0.711323,2.34491 -0.314094,0.75829 -0.699138,1.47866 -1.155128,2.16109 -0.45599,0.68245 -0.974167,1.31386 -1.554531,1.89423 -0.580368,0.58035 -1.211773,1.09852 -1.894211,1.55453 -0.682442,0.45598 -1.402805,0.84102 -2.161087,1.15512 -0.758286,0.3141 -1.539921,0.55121 -2.34491,0.71132 C 40.133636,154.91994 39.320759,155 38.5,155 c -0.820766,0 -1.633644,-0.0801 -2.438633,-0.24019 -0.804993,-0.16011 -1.586632,-0.39722 -2.344917,-0.71132 -0.758286,-0.3141 -1.478646,-0.69914 -2.161083,-1.15512 -0.682438,-0.45601 -1.313839,-0.97418 -1.894206,-1.55453 -0.580366,-0.58037 -1.098547,-1.21178 -1.554538,-1.89423 -0.45599,-0.68243 -0.84103,-1.4028 -1.155123,-2.16109 -0.314093,-0.75828 -0.551199,-1.53993 -0.711319,-2.34491 C 26.080057,144.13362 25.999998,143.32075 26,142.5 c -2e-6,-0.82077 0.08006,-1.63365 0.240179,-2.43864 0.160124,-0.80498 0.39723,-1.58661 0.711323,-2.3449 0.314091,-0.75828 0.699131,-1.47864 1.155123,-2.16109 0.455991,-0.68243 0.97417,-1.31384 1.554536,-1.89421 0.580367,-0.58037 1.211768,-1.09854 1.894204,-1.55453 0.682436,-0.45601 1.402799,-0.84105 2.161085,-1.15514 0.758285,-0.31409 1.539924,-0.55119 2.344917,-0.7113 C 36.866356,130.08006 37.679234,130 38.5,130 c 0.820759,0 1.633636,0.0801 2.438625,0.24019 0.804989,0.16011 1.586624,0.39721 2.34491,0.7113 0.758282,0.31409 1.478645,0.69913 2.161087,1.15514 0.682438,0.45599 1.313843,0.97416 1.894211,1.55453 0.580364,0.58037 1.098541,1.21178 1.554531,1.89421 0.45599,0.68245 0.841034,1.40281 1.155125,2.16109 0.31409,0.75829 0.5512,1.53992 0.711322,2.3449 C 50.919937,140.86635 51,141.67923 51,142.5 Z" />
          <path id="path46" style="fill:#FFFFFF;fill-opacity:1;fill-rule:nonzero;stroke:none" d="m 155,142.5 c 0,0.82075 -0.0801,1.63362 -0.24019,2.43861 -0.16011,0.80498 -0.39722,1.58663 -0.71132,2.34491 -0.3141,0.75829 -0.69914,1.47866 -1.15512,2.16109 -0.45601,0.68245 -0.97418,1.31386 -1.55453,1.89423 -0.58037,0.58035 -1.21178,1.09852 -1.89423,1.55453 -0.68243,0.45598 -1.4028,0.84102 -2.16109,1.15512 -0.75828,0.3141 -1.53993,0.55121 -2.34491,0.71132 C 144.13362,154.91994 143.32075,155 142.5,155 c -0.82077,0 -1.63365,-0.0801 -2.43864,-0.24019 -0.80498,-0.16011 -1.58661,-0.39722 -2.3449,-0.71132 -0.75828,-0.3141 -1.47864,-0.69914 -2.16109,-1.15512 -0.68243,-0.45601 -1.31384,-0.97418 -1.89421,-1.55453 -0.58037,-0.58037 -1.09854,-1.21178 -1.55453,-1.89423 -0.45601,-0.68243 -0.84105,-1.4028 -1.15514,-2.16109 -0.3141,-0.75828 -0.55121,-1.53993 -0.71132,-2.34491 -0.16012,-0.80499 -0.24019,-1.61786 -0.24017,-2.43861 -2e-5,-0.82077 0.08,-1.63365 0.24017,-2.43864 0.16011,-0.80498 0.39722,-1.58661 0.71132,-2.3449 0.31409,-0.75828 0.69913,-1.47864 1.15514,-2.16109 0.45599,-0.68243 0.97416,-1.31384 1.55453,-1.89421 0.58037,-0.58037 1.21178,-1.09854 1.89421,-1.55453 0.68245,-0.45601 1.40281,-0.84105 2.16109,-1.15514 0.75829,-0.31409 1.53992,-0.55119 2.3449,-0.7113 C 140.86635,130.08006 141.67923,130 142.5,130 c 0.82075,0 1.63362,0.0801 2.43861,0.24019 0.80498,0.16011 1.58663,0.39721 2.34491,0.7113 0.75829,0.31409 1.47866,0.69913 2.16109,1.15514 0.68245,0.45599 1.31386,0.97416 1.89423,1.55453 0.58035,0.58037 1.09852,1.21178 1.55453,1.89421 0.45598,0.68245 0.84102,1.40281 1.15512,2.16109 0.3141,0.75829 0.55121,1.53992 0.71132,2.3449 C 154.91994,140.86635 155,141.67923 155,142.5 Z" />
          <path id="path48" style="fill:#FFFFFF;fill-opacity:1;fill-rule:nonzero;stroke:none" d="m 77,168.5 c 0,0.82076 -0.08006,1.63362 -0.240189,2.43863 -0.160125,0.80498 -0.397232,1.58661 -0.711326,2.34489 -0.314095,0.75829 -0.699135,1.47866 -1.155121,2.16109 -0.456001,0.68245 -0.974175,1.31384 -1.554535,1.89421 -0.580368,0.58035 -1.211769,1.09853 -1.894203,1.55452 -0.682442,0.45599 -1.402809,0.84104 -2.161095,1.15514 -0.758278,0.31408 -1.539917,0.55119 -2.344902,0.71132 -0.804993,0.16011 -1.617866,0.24018 -2.438629,0.2402 -0.820763,-2e-5 -1.63364,-0.0801 -2.438633,-0.24022 -0.804993,-0.16012 -1.586632,-0.39723 -2.344917,-0.71132 -0.758286,-0.3141 -1.478646,-0.69914 -2.161083,-1.15513 -0.682442,-0.45598 -1.313843,-0.97416 -1.894207,-1.55451 -0.580369,-0.58037 -1.098549,-1.21176 -1.554539,-1.89421 -0.45599,-0.68243 -0.841034,-1.4028 -1.155125,-2.16109 -0.314091,-0.75828 -0.551197,-1.53991 -0.711319,-2.34489 C 52.080055,170.13362 51.999996,169.32076 52,168.5 c -4e-6,-0.82077 0.08006,-1.63365 0.240177,-2.43864 0.160122,-0.80501 0.397232,-1.58664 0.711323,-2.34491 0.314091,-0.75829 0.699131,-1.47866 1.155121,-2.16109 0.45599,-0.68245 0.97417,-1.31384 1.554539,-1.89421 0.580364,-0.58037 1.211765,-1.09854 1.894203,-1.55454 0.682438,-0.45599 1.402797,-0.84103 2.161083,-1.15512 0.758289,-0.3141 1.539928,-0.55121 2.344917,-0.71132 C 62.86636,156.08006 63.679237,156 64.5,156 c 0.820763,0 1.633636,0.0801 2.438629,0.24017 0.804985,0.16011 1.586624,0.39722 2.344902,0.71132 0.758286,0.31409 1.478653,0.69913 2.161095,1.15512 0.682434,0.456 1.313835,0.97417 1.894203,1.55454 0.58036,0.58037 1.098534,1.21176 1.554535,1.89421 0.455986,0.68243 0.841026,1.4028 1.155121,2.16109 0.314094,0.75827 0.551201,1.5399 0.711326,2.34491 C 76.919937,166.86635 77,167.67923 77,168.5 Z" />
          <path id="path50" style="fill:#FFFFFF;fill-opacity:1;fill-rule:nonzero;stroke:none" d="m 103,168.5 c -1e-5,0.82076 -0.0801,1.63362 -0.24019,2.43863 -0.16012,0.80498 -0.39723,1.58661 -0.71132,2.34489 -0.3141,0.75829 -0.69914,1.47866 -1.15513,2.16109 -0.45599,0.68245 -0.974171,1.31384 -1.554531,1.89421 -0.580376,0.58035 -1.211777,1.09853 -1.894218,1.55452 -0.682442,0.45599 -1.402802,0.84104 -2.16108,1.15514 -0.758285,0.31408 -1.539924,0.55119 -2.344909,0.71132 -0.804986,0.16011 -1.617859,0.24018 -2.438622,0.2402 -0.82077,-2e-5 -1.633652,-0.0801 -2.438644,-0.24022 -0.804985,-0.16012 -1.586625,-0.39723 -2.34491,-0.71132 -0.758293,-0.3141 -1.478653,-0.69914 -2.161087,-1.15513 -0.682442,-0.45598 -1.313843,-0.97416 -1.894203,-1.55451 -0.580368,-0.58037 -1.098549,-1.21176 -1.554535,-1.89421 -0.455994,-0.68243 -0.841034,-1.4028 -1.155129,-2.16109 -0.314094,-0.75828 -0.551201,-1.53991 -0.711319,-2.34489 C 78.080055,170.13362 77.999992,169.32076 78,168.5 c -8e-6,-0.82077 0.08006,-1.63365 0.240173,-2.43864 0.160118,-0.80501 0.397225,-1.58664 0.711319,-2.34491 0.314095,-0.75829 0.699135,-1.47866 1.155129,-2.16109 0.455986,-0.68245 0.974167,-1.31384 1.554535,-1.89421 0.58036,-0.58037 1.211761,-1.09854 1.894195,-1.55454 0.682442,-0.45599 1.402802,-0.84103 2.161095,-1.15512 0.758285,-0.3141 1.539925,-0.55121 2.344917,-0.71132 C 88.866348,156.08006 89.67923,156 90.5,156 c 0.820763,0 1.633636,0.0801 2.438622,0.24017 0.804985,0.16011 1.586624,0.39722 2.344909,0.71132 0.758278,0.31409 1.478638,0.69913 2.16108,1.15512 0.682441,0.456 1.313842,0.97417 1.894218,1.55454 0.58036,0.58037 1.098541,1.21176 1.554531,1.89421 0.45599,0.68243 0.84103,1.4028 1.15513,2.16109 0.31409,0.75827 0.5512,1.5399 0.71132,2.34491 0.16012,0.80499 0.24018,1.61787 0.24019,2.43864 z" />
          <path id="path52" style="fill:#FFFFFF;fill-opacity:1;fill-rule:nonzero;stroke:none" d="m 129,168.5 c 0,0.82076 -0.0801,1.63362 -0.24019,2.43863 -0.16014,0.80498 -0.39725,1.58661 -0.71133,2.34489 -0.3141,0.75829 -0.69915,1.47866 -1.15513,2.16109 -0.45599,0.68245 -0.97417,1.31384 -1.55453,1.89421 -0.58037,0.58035 -1.21177,1.09853 -1.89421,1.55452 -0.68244,0.45599 -1.4028,0.84104 -2.16109,1.15514 -0.75828,0.31408 -1.53992,0.55119 -2.34491,0.71132 -0.80498,0.16011 -1.61786,0.24018 -2.43861,0.2402 -0.82076,-2e-5 -1.63364,-0.0801 -2.43864,-0.24022 -0.805,-0.16012 -1.58664,-0.39723 -2.34492,-0.71132 -0.75829,-0.3141 -1.47865,-0.69914 -2.16108,-1.15513 -0.68244,-0.45598 -1.31384,-0.97416 -1.89421,-1.55451 -0.58038,-0.58037 -1.09856,-1.21176 -1.55454,-1.89421 -0.45599,-0.68243 -0.84103,-1.4028 -1.15512,-2.16109 -0.3141,-0.75828 -0.5512,-1.53991 -0.71132,-2.34489 -0.16012,-0.80501 -0.24018,-1.61787 -0.24017,-2.43863 -1e-5,-0.82077 0.08,-1.63365 0.24017,-2.43864 0.16011,-0.80501 0.39722,-1.58664 0.71132,-2.34491 0.31409,-0.75829 0.69913,-1.47866 1.15512,-2.16109 0.45598,-0.68245 0.97416,-1.31384 1.55454,-1.89421 0.58037,-0.58037 1.21177,-1.09854 1.8942,-1.55454 0.68244,-0.45599 1.4028,-0.84103 2.16109,-1.15512 0.75828,-0.3141 1.53992,-0.55121 2.34492,-0.71132 C 114.86636,156.08006 115.67924,156 116.5,156 c 0.82075,0 1.63363,0.0801 2.43861,0.24017 0.80499,0.16011 1.58662,0.39722 2.34491,0.71132 0.75829,0.31409 1.47865,0.69913 2.16109,1.15512 0.68244,0.456 1.31384,0.97417 1.89421,1.55454 0.58036,0.58037 1.09854,1.21176 1.55453,1.89421 0.45598,0.68243 0.84103,1.4028 1.15513,2.16109 0.31408,0.75827 0.55119,1.5399 0.71133,2.34491 C 128.91994,166.86635 129,167.67923 129,168.5 Z" />
        </g>
      </g>
    </g>
  </g>
</svg>