<?xml version="1.0" encoding="UTF-8" standalone="no"?>
<svg xmlns:dc="http://purl.org/dc/elements/1.1/" xmlns:cc="http://creativecommons.org/ns#" xmlns:rdf="http://www.w3.org/1999/02/22-rdf-syntax-ns#" xmlns:svg="http://www.w3.org/2000/svg" xmlns="http://www.w3.org/2000/svg" version="1.1"
  width="420" height="315" viewBox="0 0 420 315">
  <g transform="matrix(0.31999998,0,0,0.31999998,0,2.04e-5)" id="g10">
    <g id="g12">
      <g clip-path="url(#clipPath18)" id="g14">
        <g transform="scale(4.21875)" id="g20">
          <path id="path22" style="fill:#FFFFFF;fill-opacity:1;fill-rule:nonzero;stroke:none" d="m 77,12.5 c 0,0.820762 -0.08006,1.633637 -0.240189,2.438627 -0.160125,0.80499 -0.397232,1.586628 -0.711326,2.344912 -0.314095,0.758285 -0.699135,1.478647 -1.155121,2.161085 -0.456001,0.68244 -0.974175,1.313843 -1.554535,1.894209 -0.580368,0.580366 -1.211769,1.098543 -1.894203,1.554535 -0.682442,0.45599 -1.402809,0.84103 -2.161095,1.155123 -0.758278,0.314092 -1.539917,0.551198 -2.344902,0.711322 C 66.133636,24.919937 65.320763,24.999998 64.5,25 c -0.820763,-2e-6 -1.63364,-0.08006 -2.438633,-0.240185 -0.804993,-0.160124 -1.586632,-0.397232 -2.344917,-0.711324 -0.758286,-0.314093 -1.478646,-0.699133 -2.161083,-1.155123 -0.682442,-0.455992 -1.313843,-0.974169 -1.894207,-1.554535 -0.580369,-0.580366 -1.098549,-1.211769 -1.554539,-1.894209 -0.45599,-0.682438 -0.841034,-1.4028 -1.155125,-2.161085 C 52.637405,16.525255 52.400299,15.743617 52.240177,14.938627 52.080055,14.133637 51.999996,13.320762 52,12.5 c -4e-6,-0.820762 0.08006,-1.633638 0.240177,-2.438629 C 52.400299,9.2563791 52.637409,8.474741 52.9515,7.7164569 53.265591,6.9581718 53.650631,6.2378101 54.106621,5.5553718 54.562611,4.8729334 55.080791,4.2415309 55.66116,3.661165 56.241524,3.0807989 56.872925,2.5626204 57.555363,2.1066296 58.237801,1.6506388 58.95816,1.2655976 59.716446,0.95150572 60.474735,0.63741386 61.256374,0.40030661 62.061363,0.24018396 62.86636,0.08006132 63.679237,0 64.5,0 c 0.820763,0 1.633636,0.08006132 2.438629,0.24018396 0.804985,0.16012265 1.586624,0.3972299 2.344902,0.71132176 0.758286,0.31409188 1.478653,0.69913308 2.161095,1.15512388 0.682434,0.4559908 1.313835,0.9741693 1.894203,1.5545354 0.58036,0.5803659 1.098534,1.2117679 1.554535,1.8942063 0.455986,0.6824384 0.841026,1.4027996 1.155121,2.1610846 0.314094,0.7582851 0.551201,1.5399223 0.711326,2.3449141 C 76.919937,10.866362 77,11.679238 77,12.5 Z" />
          <path id="path24" style="fill:#FFFFFF;fill-opacity:1;fill-rule:nonzero;stroke:none" d="m 103,12.5 c -1e-5,0.820762 -0.0801,1.633637 -0.24019,2.438627 -0.16012,0.80499 -0.39723,1.586628 -0.71132,2.344912 -0.3141,0.758285 -0.69914,1.478647 -1.15513,2.161085 -0.45599,0.68244 -0.974171,1.313843 -1.554531,1.894209 -0.580376,0.580366 -1.211777,1.098543 -1.894218,1.554535 -0.682442,0.45599 -1.402802,0.84103 -2.16108,1.155123 -0.758285,0.314092 -1.539924,0.551198 -2.344909,0.711322 C 92.133636,24.919937 91.320763,24.999998 90.5,25 c -0.82077,-2e-6 -1.633652,-0.08006 -2.438644,-0.240185 -0.804985,-0.160124 -1.586625,-0.397232 -2.34491,-0.711324 -0.758293,-0.314093 -1.478653,-0.699133 -2.161087,-1.155123 -0.682442,-0.455992 -1.313843,-0.974169 -1.894203,-1.554535 -0.580368,-0.580366 -1.098549,-1.211769 -1.554535,-1.894209 -0.455994,-0.682438 -0.841034,-1.4028 -1.155129,-2.161085 C 78.637398,16.525255 78.400291,15.743617 78.240173,14.938627 78.080055,14.133637 77.999992,13.320762 78,12.5 c -8e-6,-0.820762 0.08006,-1.633638 0.240173,-2.438629 0.160118,-0.8049919 0.397225,-1.58663 0.711319,-2.3449141 0.314095,-0.7582851 0.699135,-1.4786468 1.155129,-2.1610851 0.455986,-0.6824384 0.974167,-1.3138409 1.554535,-1.8942068 0.58036,-0.5803661 1.211761,-1.0985446 1.894195,-1.5545354 0.682442,-0.4559908 1.402802,-0.841032 2.161095,-1.15512388 C 86.474731,0.63741386 87.256371,0.40030661 88.061363,0.24018396 88.866348,0.08006132 89.67923,0 90.5,0 c 0.820763,0 1.633636,0.08006132 2.438622,0.24018396 0.804985,0.16012265 1.586624,0.3972299 2.344909,0.71132176 0.758278,0.31409188 1.478638,0.69913308 2.16108,1.15512388 0.682441,0.4559908 1.313842,0.9741693 1.894218,1.5545354 0.58036,0.5803659 1.098541,1.2117679 1.554531,1.8942063 0.45599,0.6824384 0.84103,1.4027996 1.15513,2.1610846 0.31409,0.7582851 0.5512,1.5399223 0.71132,2.3449141 0.16012,0.804992 0.24018,1.617868 0.24019,2.43863 z" />
          <path id="path26" style="fill:#FFFFFF;fill-opacity:1;fill-rule:nonzero;stroke:none" d="m 129,12.5 c 0,0.820762 -0.0801,1.633637 -0.24019,2.438627 -0.16014,0.80499 -0.39725,1.586628 -0.71133,2.344912 -0.3141,0.758285 -0.69915,1.478647 -1.15513,2.161085 -0.45599,0.68244 -0.97417,1.313843 -1.55453,1.894209 -0.58037,0.580366 -1.21177,1.098543 -1.89421,1.554535 -0.68244,0.45599 -1.4028,0.84103 -2.16109,1.155123 -0.75828,0.314092 -1.53992,0.551198 -2.34491,0.711322 C 118.13363,24.919937 117.32075,24.999998 116.5,25 c -0.82076,-2e-6 -1.63364,-0.08006 -2.43864,-0.240185 -0.805,-0.160124 -1.58664,-0.397232 -2.34492,-0.711324 -0.75829,-0.314093 -1.47865,-0.699133 -2.16108,-1.155123 -0.68244,-0.455992 -1.31384,-0.974169 -1.89421,-1.554535 -0.58038,-0.580366 -1.09856,-1.211769 -1.55454,-1.894209 -0.45599,-0.682438 -0.84103,-1.4028 -1.15512,-2.161085 -0.3141,-0.758284 -0.5512,-1.539922 -0.71132,-2.344912 C 104.08005,14.133637 103.99999,13.320762 104,12.5 c -1e-5,-0.820762 0.08,-1.633638 0.24017,-2.438629 0.16011,-0.8049919 0.39722,-1.58663 0.71132,-2.3449141 0.31409,-0.7582851 0.69913,-1.4786468 1.15512,-2.1610851 0.45598,-0.6824384 0.97416,-1.3138409 1.55454,-1.8942068 0.58037,-0.5803661 1.21177,-1.0985446 1.8942,-1.5545354 0.68244,-0.4559908 1.4028,-0.841032 2.16109,-1.15512388 0.75828,-0.31409186 1.53992,-0.55119911 2.34492,-0.71132176 C 114.86636,0.08006132 115.67924,0 116.5,0 c 0.82075,0 1.63363,0.08006132 2.43861,0.24018396 0.80499,0.16012265 1.58662,0.3972299 2.34491,0.71132176 0.75829,0.31409188 1.47865,0.69913308 2.16109,1.15512388 0.68244,0.4559908 1.31384,0.9741693 1.89421,1.5545354 0.58036,0.5803659 1.09854,1.2117679 1.55453,1.8942063 0.45598,0.6824384 0.84103,1.4027996 1.15513,2.1610846 0.31408,0.7582851 0.55119,1.5399223 0.71133,2.3449141 C 128.91994,10.866362 129,11.679238 129,12.5 Z" />
          <path id="path28" style="fill:#FFFFFF;fill-opacity:1;fill-rule:nonzero;stroke:none" d="m 207,12.5 c -2e-5,0.820762 -0.0801,1.633637 -0.24022,2.438627 -0.16012,0.80499 -0.39723,1.586628 -0.71132,2.344912 -0.3141,0.758285 -0.69914,1.478647 -1.15513,2.161085 -0.45598,0.68244 -0.97414,1.313843 -1.55451,1.894209 -0.58037,0.580366 -1.21178,1.098543 -1.89421,1.554535 -0.68245,0.45599 -1.4028,0.84103 -2.16109,1.155123 -0.75828,0.314092 -1.53993,0.551198 -2.34491,0.711322 C 196.13364,24.919937 195.32076,24.999998 194.5,25 c -0.82077,-2e-6 -1.63365,-0.08006 -2.43864,-0.240185 -0.805,-0.160124 -1.58664,-0.397232 -2.34493,-0.711324 -0.75828,-0.314093 -1.47865,-0.699133 -2.16109,-1.155123 -0.68243,-0.455992 -1.31382,-0.974169 -1.89419,-1.554535 -0.58037,-0.580366 -1.09856,-1.211769 -1.55455,-1.894209 -0.45598,-0.682438 -0.84102,-1.4028 -1.15511,-2.161085 -0.3141,-0.758284 -0.55121,-1.539922 -0.71133,-2.344912 C 182.08005,14.133637 181.99998,13.320762 182,12.5 c -2e-5,-0.820762 0.08,-1.633638 0.24016,-2.438629 0.16011,-0.8049919 0.39721,-1.58663 0.71132,-2.3449141 0.31408,-0.7582851 0.69912,-1.4786468 1.15512,-2.1610851 0.45599,-0.6824384 0.97418,-1.3138409 1.55455,-1.8942068 0.58037,-0.5803661 1.21176,-1.0985446 1.89419,-1.5545354 0.68244,-0.4559908 1.40281,-0.841032 2.16109,-1.15512388 0.75829,-0.31409186 1.53993,-0.55119911 2.34493,-0.71132176 C 192.86635,0.08006132 193.67923,0 194.5,0 c 0.82076,0 1.63364,0.08006132 2.43861,0.24018396 0.80498,0.16012265 1.58661,0.3972299 2.3449,0.71132176 0.75828,0.31409188 1.47865,0.69913308 2.1611,1.15512388 0.68243,0.4559908 1.31384,0.9741693 1.89421,1.5545354 0.58037,0.5803659 1.09854,1.2117679 1.55452,1.8942063 0.45599,0.6824384 0.84104,1.4027996 1.15514,2.1610846 0.31407,0.7582851 0.55118,1.5399223 0.7113,2.3449141 0.16014,0.804992 0.2402,1.617868 0.24022,2.43863 z" />
          <path id="path30" style="fill:#FFFFFF;fill-opacity:1;fill-rule:nonzero;stroke:none" d="m 233,12.5 c -2e-5,0.820762 -0.0801,1.633637 -0.2402,2.438627 -0.16013,0.80499 -0.39724,1.586628 -0.71134,2.344912 -0.3141,0.758285 -0.69914,1.478647 -1.15512,2.161085 -0.45599,0.68244 -0.97417,1.313843 -1.55453,1.894209 -0.58037,0.580366 -1.21178,1.098543 -1.89423,1.554535 -0.68242,0.45599 -1.40279,0.84103 -2.16107,1.155123 -0.75829,0.314092 -1.53992,0.551198 -2.34491,0.711322 -0.80498,0.160124 -1.61784,0.240185 -2.4386,0.240187 -0.82076,-2e-6 -1.63364,-0.08006 -2.43864,-0.240185 -0.805,-0.160124 -1.58664,-0.397232 -2.34493,-0.711324 -0.75828,-0.314093 -1.47865,-0.699133 -2.1611,-1.155123 -0.68244,-0.455992 -1.31383,-0.974169 -1.8942,-1.554535 -0.58037,-0.580366 -1.09855,-1.211769 -1.55453,-1.894209 -0.456,-0.682438 -0.84104,-1.4028 -1.15512,-2.161085 -0.31411,-0.758284 -0.5512,-1.539922 -0.71131,-2.344912 C 208.08003,14.133637 207.99998,13.320762 208,12.5 c -2e-5,-0.820762 0.08,-1.633638 0.24016,-2.438629 0.16011,-0.8049919 0.39721,-1.58663 0.71132,-2.3449141 0.31408,-0.7582851 0.69912,-1.4786468 1.15512,-2.1610851 0.45598,-0.6824384 0.97416,-1.3138409 1.55453,-1.8942068 0.58037,-0.5803661 1.21176,-1.0985446 1.8942,-1.5545354 0.68245,-0.4559908 1.40282,-0.841032 2.1611,-1.15512388 0.75829,-0.31409186 1.53993,-0.55119911 2.34493,-0.71132176 C 218.86636,0.08006132 219.67924,0 220.5,0 c 0.82076,0 1.63364,0.08006132 2.43861,0.24018396 0.80498,0.16012265 1.58661,0.3972299 2.3449,0.71132176 0.75828,0.31409188 1.47865,0.69913308 2.16107,1.15512388 0.68245,0.4559908 1.31386,0.9741693 1.89423,1.5545354 0.58036,0.5803659 1.09854,1.2117679 1.55452,1.8942063 0.45599,0.6824384 0.84103,1.4027996 1.15513,2.1610846 0.3141,0.7582851 0.55121,1.5399223 0.71134,2.3449141 0.16012,0.804992 0.24018,1.617868 0.2402,2.43863 z" />
          <path id="path32" style="fill:#FFFFFF;fill-opacity:1;fill-rule:nonzero;stroke:none" d="m 259,12.5 c 0,0.820762 -0.0801,1.633637 -0.2402,2.438627 -0.16013,0.80499 -0.39725,1.586628 -0.71134,2.344912 -0.31408,0.758285 -0.69913,1.478647 -1.15512,2.161085 -0.45599,0.68244 -0.97417,1.313843 -1.55452,1.894209 -0.58037,0.580366 -1.21178,1.098543 -1.89422,1.554535 -0.68244,0.45599 -1.40279,0.84103 -2.16108,1.155123 -0.75828,0.314092 -1.53991,0.551198 -2.34492,0.711322 -0.80498,0.160124 -1.61784,0.240185 -2.4386,0.240187 -0.82076,-2e-6 -1.63364,-0.08006 -2.43863,-0.240185 -0.80501,-0.160124 -1.58665,-0.397232 -2.34494,-0.711324 -0.75828,-0.314093 -1.47865,-0.699133 -2.1611,-1.155123 -0.68244,-0.455992 -1.31383,-0.974169 -1.89418,-1.554535 -0.58037,-0.580366 -1.09856,-1.211769 -1.55455,-1.894209 -0.456,-0.682438 -0.84104,-1.4028 -1.15512,-2.161085 -0.31411,-0.758284 -0.5512,-1.539922 -0.71131,-2.344912 C 234.08005,14.133637 233.99998,13.320762 234,12.5 c -2e-5,-0.820762 0.08,-1.633638 0.24016,-2.438629 0.16011,-0.8049919 0.39721,-1.58663 0.71132,-2.3449141 0.31408,-0.7582851 0.69912,-1.4786468 1.1551,-2.1610851 0.45601,-0.6824384 0.9742,-1.3138409 1.55457,-1.8942068 0.58035,-0.5803661 1.21174,-1.0985446 1.89418,-1.5545354 0.68245,-0.4559908 1.40282,-0.841032 2.1611,-1.15512388 0.75829,-0.31409186 1.53993,-0.55119911 2.34494,-0.71132176 C 244.86636,0.08006132 245.67924,0 246.5,0 c 0.82076,0 1.63362,0.08006132 2.4386,0.24018396 0.80499,0.16012265 1.58662,0.3972299 2.34491,0.71132176 0.75828,0.31409188 1.47865,0.69913308 2.16109,1.15512388 0.68244,0.4559908 1.31385,0.9741693 1.89422,1.5545354 0.58035,0.5803659 1.09853,1.2117679 1.55452,1.8942063 0.45599,0.6824384 0.84104,1.4027996 1.15512,2.1610846 0.31409,0.7582851 0.55121,1.5399223 0.71134,2.3449141 C 258.91992,10.866362 259,11.679238 259,12.5 Z" />
          <path id="path34" style="fill:#FFFFFF;fill-opacity:1;fill-rule:nonzero;stroke:none" d="m 51,38.5 c 0,0.820759 -0.08006,1.633636 -0.240185,2.438625 -0.160122,0.804989 -0.397232,1.586624 -0.711323,2.34491 -0.314094,0.758282 -0.699138,1.478645 -1.155128,2.161087 -0.45599,0.682438 -0.974167,1.313843 -1.554531,1.894211 -0.580368,0.580364 -1.211773,1.098541 -1.894211,1.554531 -0.682442,0.45599 -1.402805,0.841034 -2.161087,1.155125 -0.758286,0.31409 -1.539921,0.5512 -2.34491,0.711322 C 40.133636,50.919937 39.320759,51 38.5,51 37.679234,51 36.866356,50.919937 36.061367,50.759815 35.256374,50.599693 34.474735,50.362583 33.71645,50.048492 32.958164,49.734398 32.237804,49.349354 31.555367,48.893364 30.872929,48.437374 30.241528,47.919197 29.661161,47.338833 29.080795,46.758465 28.562614,46.12706 28.106623,45.444622 27.650633,44.76218 27.265593,44.041817 26.9515,43.283535 26.637407,42.525249 26.400301,41.743614 26.240181,40.938625 26.080057,40.133636 25.999998,39.320759 26,38.5 c -2e-6,-0.820766 0.08006,-1.633644 0.240179,-2.438633 0.160124,-0.804993 0.39723,-1.586632 0.711323,-2.344917 0.314091,-0.758286 0.699131,-1.478646 1.155123,-2.161083 0.455991,-0.682438 0.97417,-1.313839 1.554536,-1.894206 0.580367,-0.580366 1.211768,-1.098545 1.894204,-1.554536 0.682436,-0.455992 1.402799,-0.841032 2.161085,-1.155123 0.758285,-0.314091 1.539924,-0.551197 2.344917,-0.711319 C 36.866356,26.080061 37.679234,26 38.5,26 c 0.820759,0 1.633636,0.08006 2.438625,0.240183 0.804989,0.160122 1.586624,0.397228 2.34491,0.711319 0.758282,0.314091 1.478645,0.699131 2.161087,1.155123 0.682438,0.455991 1.313843,0.97417 1.894211,1.554536 0.580364,0.580367 1.098541,1.211768 1.554531,1.894204 0.45599,0.682436 0.841034,1.402799 1.155125,2.161085 0.31409,0.758285 0.5512,1.539924 0.711322,2.344917 C 50.919937,36.866356 51,37.679234 51,38.5 Z" />
          <path id="path36" style="fill:#FFFFFF;fill-opacity:1;fill-rule:nonzero;stroke:none" d="m 155,38.5 c 0,0.820759 -0.0801,1.633636 -0.24019,2.438625 -0.16011,0.804989 -0.39722,1.586624 -0.71132,2.34491 -0.3141,0.758282 -0.69914,1.478645 -1.15512,2.161087 -0.45601,0.682438 -0.97418,1.313843 -1.55453,1.894211 -0.58037,0.580364 -1.21178,1.098541 -1.89423,1.554531 -0.68243,0.45599 -1.4028,0.841034 -2.16109,1.155125 -0.75828,0.31409 -1.53993,0.5512 -2.34491,0.711322 C 144.13362,50.919937 143.32075,51 142.5,51 c -0.82077,0 -1.63365,-0.08006 -2.43864,-0.240185 -0.80498,-0.160122 -1.58661,-0.397232 -2.3449,-0.711323 -0.75828,-0.314094 -1.47864,-0.699138 -2.16109,-1.155128 -0.68243,-0.45599 -1.31384,-0.974167 -1.89421,-1.554531 -0.58037,-0.580368 -1.09854,-1.211773 -1.55453,-1.894211 -0.45601,-0.682442 -0.84105,-1.402805 -1.15514,-2.161087 -0.3141,-0.758286 -0.55121,-1.539921 -0.71132,-2.34491 C 130.08005,40.133636 129.99998,39.320759 130,38.5 c -2e-5,-0.820766 0.08,-1.633644 0.24017,-2.438633 0.16011,-0.804993 0.39722,-1.586632 0.71132,-2.344917 0.31409,-0.758286 0.69913,-1.478646 1.15514,-2.161083 0.45599,-0.682438 0.97416,-1.313839 1.55453,-1.894206 0.58037,-0.580366 1.21178,-1.098545 1.89421,-1.554536 0.68245,-0.455992 1.40281,-0.841032 2.16109,-1.155123 0.75829,-0.314091 1.53992,-0.551197 2.3449,-0.711319 C 140.86635,26.080061 141.67923,26 142.5,26 c 0.82075,0 1.63362,0.08006 2.43861,0.240183 0.80498,0.160122 1.58663,0.397228 2.34491,0.711319 0.75829,0.314091 1.47866,0.699131 2.16109,1.155123 0.68245,0.455991 1.31386,0.97417 1.89423,1.554536 0.58035,0.580367 1.09852,1.211768 1.55453,1.894204 0.45598,0.682436 0.84102,1.402799 1.15512,2.161085 0.3141,0.758285 0.55121,1.539924 0.71132,2.344917 C 154.91994,36.866356 155,37.679234 155,38.5 Z" />
          <path id="path38" style="fill:#FFFFFF;fill-opacity:1;fill-rule:nonzero;stroke:none" d="m 181,38.5 c -2e-5,0.820759 -0.0801,1.633636 -0.24022,2.438625 -0.16012,0.804989 -0.39723,1.586624 -0.71132,2.34491 -0.3141,0.758282 -0.69914,1.478645 -1.15513,2.161087 -0.45598,0.682438 -0.97416,1.313843 -1.55451,1.894211 -0.58037,0.580364 -1.21176,1.098541 -1.89421,1.554531 -0.68243,0.45599 -1.4028,0.841034 -2.16109,1.155125 -0.75828,0.31409 -1.53991,0.5512 -2.34489,0.711322 C 170.13362,50.919937 169.32076,51 168.5,51 c -0.82077,0 -1.63365,-0.08006 -2.43864,-0.240185 -0.80501,-0.160122 -1.58664,-0.397232 -2.34491,-0.711323 -0.75829,-0.314094 -1.47866,-0.699138 -2.16109,-1.155128 -0.68245,-0.45599 -1.31384,-0.974167 -1.89421,-1.554531 -0.58037,-0.580368 -1.09854,-1.211773 -1.55455,-1.894211 -0.45598,-0.682442 -0.84102,-1.402805 -1.15511,-2.161087 -0.3141,-0.758286 -0.55121,-1.539921 -0.71133,-2.34491 C 156.08005,40.133636 155.99998,39.320759 156,38.5 c -2e-5,-0.820766 0.08,-1.633644 0.24016,-2.438633 0.16012,-0.804993 0.39723,-1.586632 0.71133,-2.344917 0.31409,-0.758286 0.69913,-1.478646 1.15511,-2.161083 0.45601,-0.682438 0.97418,-1.313839 1.55455,-1.894206 0.58037,-0.580366 1.21176,-1.098545 1.89421,-1.554536 0.68243,-0.455992 1.4028,-0.841032 2.16109,-1.155123 0.75827,-0.314091 1.5399,-0.551197 2.34491,-0.711319 C 166.86635,26.080061 167.67923,26 168.5,26 c 0.82076,0 1.63362,0.08006 2.43863,0.240183 0.80498,0.160122 1.58661,0.397228 2.34489,0.711319 0.75829,0.314091 1.47866,0.699131 2.16109,1.155123 0.68245,0.455991 1.31384,0.97417 1.89421,1.554536 0.58035,0.580367 1.09853,1.211768 1.55452,1.894204 0.45599,0.682436 0.84104,1.402799 1.15514,2.161085 0.31408,0.758285 0.55119,1.539924 0.71132,2.344917 0.16011,0.804989 0.24018,1.617867 0.2402,2.438633 z" />
          <path id="path40" style="fill:#FFFFFF;fill-opacity:1;fill-rule:nonzero;stroke:none" d="m 285,38.5 c 0,0.820759 -0.0801,1.633636 -0.24023,2.438625 -0.1601,0.804989 -0.39719,1.586624 -0.71131,2.34491 -0.31408,0.758282 -0.69913,1.478645 -1.15509,2.161087 -0.45599,0.682438 -0.97418,1.313843 -1.55453,1.894211 -0.58039,0.580364 -1.2118,1.098541 -1.89423,1.554531 -0.68243,0.45599 -1.4028,0.841034 -2.16107,1.155125 -0.75827,0.31409 -1.53992,0.5512 -2.34491,0.711322 C 274.13364,50.919937 273.32077,51 272.5,51 c -0.82077,0 -1.63367,-0.08006 -2.43863,-0.240185 -0.80502,-0.160122 -1.58667,-0.397232 -2.34494,-0.711323 -0.75827,-0.314094 -1.47864,-0.699138 -2.16107,-1.155128 -0.68244,-0.45599 -1.31384,-0.974167 -1.8942,-1.554531 -0.58038,-0.580368 -1.09857,-1.211773 -1.55456,-1.894211 -0.456,-0.682442 -0.84104,-1.402805 -1.15512,-2.161087 -0.31409,-0.758286 -0.55121,-1.539921 -0.71134,-2.34491 C 260.08002,40.133636 259.99997,39.320759 260,38.5 c -3e-5,-0.820766 0.08,-1.633644 0.24014,-2.438633 0.16013,-0.804993 0.39725,-1.586632 0.71134,-2.344917 0.31408,-0.758286 0.69912,-1.478646 1.15515,-2.161083 0.45596,-0.682438 0.97415,-1.313839 1.55453,-1.894206 0.58036,-0.580366 1.21176,-1.098545 1.8942,-1.554536 0.68243,-0.455992 1.4028,-0.841032 2.16107,-1.155123 0.75827,-0.314091 1.53992,-0.551197 2.34494,-0.711319 C 270.86633,26.080061 271.67923,26 272.5,26 c 0.82077,0 1.63364,0.08006 2.43863,0.240183 0.80499,0.160122 1.58664,0.397228 2.34491,0.711319 0.75827,0.314091 1.47864,0.699131 2.16107,1.155123 0.68243,0.455991 1.31384,0.97417 1.89423,1.554536 0.58035,0.580367 1.09854,1.211768 1.55453,1.894204 0.45596,0.682436 0.84101,1.402799 1.15509,2.161085 0.31412,0.758285 0.55121,1.539924 0.71131,2.344917 C 284.91992,36.866356 285,37.679234 285,38.5 Z" />
          <path id="path42" style="fill:#FFFFFF;fill-opacity:1;fill-rule:nonzero;stroke:none" d="m 25,64.5 c -2e-6,0.820763 -0.08006,1.633636 -0.240185,2.438629 -0.160124,0.804985 -0.397232,1.586624 -0.711324,2.344902 -0.314093,0.758286 -0.699133,1.478653 -1.155123,2.161095 -0.455992,0.682434 -0.974169,1.313835 -1.554535,1.894203 -0.580366,0.58036 -1.211769,1.098534 -1.894209,1.554535 -0.682438,0.455986 -1.4028,0.841026 -2.161085,1.155121 -0.758284,0.314094 -1.539922,0.551201 -2.344912,0.711326 C 14.133637,76.919937 13.320762,77 12.5,77 11.679238,77 10.866362,76.919937 10.061371,76.759811 9.2563791,76.599686 8.474741,76.362579 7.7164569,76.048485 6.9581718,75.73439 6.2378101,75.34935 5.5553718,74.893364 4.8729334,74.437363 4.2415309,73.919189 3.661165,73.338829 3.0807989,72.758461 2.5626204,72.12706 2.1066296,71.444626 1.6506388,70.762184 1.2655976,70.041817 0.95150572,69.283531 0.63741386,68.525253 0.40030661,67.743614 0.24018396,66.938629 0.08006132,66.133636 0,65.320763 0,64.5 0,63.679237 0.08006132,62.86636 0.24018396,62.061367 0.40030661,61.256374 0.63741386,60.474735 0.95150572,59.71645 1.2655976,58.958164 1.6506388,58.237804 2.1066296,57.555367 2.5626204,56.872925 3.0807989,56.241524 3.661165,55.66116 4.2415309,55.080795 4.8729329,54.562614 5.5553713,54.106621 6.2378097,53.650631 6.9581709,53.265591 7.7164559,52.9515 8.474741,52.637409 9.2563782,52.400303 10.06137,52.240181 10.866362,52.080059 11.679238,52 12.5,52 c 0.820762,0 1.633637,0.08006 2.438627,0.240185 0.80499,0.160118 1.586628,0.397224 2.344912,0.711315 0.758285,0.314091 1.478647,0.699131 2.161085,1.155125 0.68244,0.455989 1.313843,0.97417 1.894209,1.554535 0.580366,0.580364 1.098543,1.211765 1.554535,1.894203 0.45599,0.682438 0.84103,1.402797 1.155123,2.161083 0.314092,0.758289 0.551198,1.539928 0.711322,2.344917 C 24.919937,62.86636 24.999998,63.679237 25,64.5 Z" />
          <path id="path44" style="fill:#FFFFFF;fill-opacity:1;fill-rule:nonzero;stroke:none" d="m 103,64.5 c -1e-5,0.820763 -0.0801,1.633636 -0.24019,2.438629 -0.16012,0.804985 -0.39723,1.586624 -0.71132,2.344902 -0.3141,0.758286 -0.69914,1.478653 -1.15513,2.161095 -0.45599,0.682434 -0.974171,1.313835 -1.554531,1.894203 -0.580376,0.58036 -1.211777,1.098534 -1.894218,1.554535 -0.682442,0.455986 -1.402802,0.841026 -2.16108,1.155121 -0.758285,0.314094 -1.539924,0.551201 -2.344909,0.711326 C 92.133636,76.919937 91.320763,77 90.5,77 89.67923,77 88.866348,76.919937 88.061356,76.759811 87.256371,76.599686 86.474731,76.362579 85.716446,76.048485 84.958153,75.73439 84.237793,75.34935 83.555359,74.893364 82.872917,74.437363 82.241516,73.919189 81.661156,73.338829 81.080788,72.758461 80.562607,72.12706 80.106621,71.444626 79.650627,70.762184 79.265587,70.041817 78.951492,69.283531 78.637398,68.525253 78.400291,67.743614 78.240173,66.938629 78.080055,66.133636 77.999992,65.320763 78,64.5 c -8e-6,-0.820763 0.08006,-1.63364 0.240173,-2.438633 0.160118,-0.804993 0.397225,-1.586632 0.711319,-2.344917 0.314095,-0.758286 0.699135,-1.478646 1.155129,-2.161083 0.455986,-0.682442 0.974167,-1.313843 1.554535,-1.894207 0.58036,-0.580365 1.211761,-1.098546 1.894195,-1.554539 0.682442,-0.45599 1.402802,-0.84103 2.161095,-1.155121 0.758285,-0.314091 1.539925,-0.551197 2.344917,-0.711319 C 88.866348,52.080059 89.67923,52 90.5,52 c 0.820763,0 1.633636,0.08006 2.438622,0.240185 0.804985,0.160118 1.586624,0.397224 2.344909,0.711315 0.758278,0.314091 1.478638,0.699131 2.16108,1.155125 0.682441,0.455989 1.313842,0.97417 1.894218,1.554535 0.58036,0.580364 1.098541,1.211765 1.554531,1.894203 0.45599,0.682438 0.84103,1.402797 1.15513,2.161083 0.31409,0.758289 0.5512,1.539928 0.71132,2.344917 C 102.91993,62.86636 102.99999,63.679237 103,64.5 Z" />
          <path id="path46" style="fill:#FFFFFF;fill-opacity:1;fill-rule:nonzero;stroke:none" d="m 233,64.5 c -2e-5,0.820763 -0.0801,1.633636 -0.2402,2.438629 -0.16013,0.804985 -0.39724,1.586624 -0.71134,2.344902 -0.3141,0.758286 -0.69914,1.478653 -1.15512,2.161095 -0.45599,0.682434 -0.97417,1.313835 -1.55453,1.894203 -0.58037,0.58036 -1.21178,1.098534 -1.89423,1.554535 -0.68242,0.455986 -1.40279,0.841026 -2.16107,1.155121 -0.75829,0.314094 -1.53992,0.551201 -2.34491,0.711326 C 222.13362,76.919937 221.32076,77 220.5,77 c -0.82076,0 -1.63364,-0.08006 -2.43864,-0.240189 -0.805,-0.160125 -1.58664,-0.397232 -2.34493,-0.711326 -0.75828,-0.314095 -1.47865,-0.699135 -2.1611,-1.155121 -0.68244,-0.456001 -1.31383,-0.974175 -1.8942,-1.554535 -0.58037,-0.580368 -1.09855,-1.211769 -1.55453,-1.894203 -0.456,-0.682442 -0.84104,-1.402809 -1.15512,-2.161095 -0.31411,-0.758278 -0.5512,-1.539917 -0.71131,-2.344902 C 208.08003,66.133636 207.99998,65.320763 208,64.5 c -2e-5,-0.820763 0.08,-1.63364 0.24016,-2.438633 0.16011,-0.804993 0.39721,-1.586632 0.71132,-2.344917 0.31408,-0.758286 0.69912,-1.478646 1.15512,-2.161083 0.45598,-0.682442 0.97416,-1.313843 1.55453,-1.894207 0.58037,-0.580365 1.21176,-1.098546 1.8942,-1.554539 0.68245,-0.45599 1.40282,-0.84103 2.1611,-1.155121 0.75829,-0.314091 1.53993,-0.551197 2.34493,-0.711319 C 218.86636,52.080059 219.67924,52 220.5,52 c 0.82076,0 1.63364,0.08006 2.43861,0.240185 0.80498,0.160118 1.58661,0.397224 2.3449,0.711315 0.75828,0.314091 1.47865,0.699131 2.16107,1.155125 0.68245,0.455989 1.31386,0.97417 1.89423,1.554535 0.58036,0.580364 1.09854,1.211765 1.55452,1.894203 0.45599,0.682438 0.84103,1.402797 1.15513,2.161083 0.3141,0.758289 0.55121,1.539928 0.71134,2.344917 0.16012,0.804997 0.24018,1.617874 0.2402,2.438637 z" />
          <path id="path48" style="fill:#FFFFFF;fill-opacity:1;fill-rule:nonzero;stroke:none" d="m 311,64.5 c -3e-5,0.820763 -0.0801,1.633636 -0.2402,2.438629 -0.16013,0.804985 -0.39722,1.586624 -0.71131,2.344902 -0.31411,0.758286 -0.69916,1.478653 -1.15512,2.161095 -0.45602,0.682434 -0.97421,1.313835 -1.55456,1.894203 -0.58039,0.58036 -1.2118,1.098534 -1.89423,1.554535 -0.68243,0.455986 -1.4028,0.841026 -2.16107,1.155121 -0.75827,0.314094 -1.53992,0.551201 -2.34494,0.711326 C 300.13361,76.919937 299.32074,77 298.5,77 c -0.82077,0 -1.63364,-0.08006 -2.43866,-0.240189 -0.80496,-0.160125 -1.58661,-0.397232 -2.34491,-0.711326 -0.75827,-0.314095 -1.47864,-0.699135 -2.16107,-1.155121 -0.68244,-0.456001 -1.31384,-0.974175 -1.8942,-1.554535 -0.58035,-0.580368 -1.09854,-1.211769 -1.55453,-1.894203 -0.45603,-0.682442 -0.84107,-1.402809 -1.15515,-2.161095 -0.31409,-0.758278 -0.55118,-1.539917 -0.71131,-2.344902 C 286.08005,66.133636 286,65.320763 286,64.5 c 0,-0.820763 0.0801,-1.63364 0.24017,-2.438633 0.16013,-0.804993 0.39722,-1.586632 0.71131,-2.344917 0.31408,-0.758286 0.69912,-1.478646 1.15515,-2.161083 0.45599,-0.682442 0.97418,-1.313843 1.55453,-1.894207 0.58036,-0.580365 1.21176,-1.098546 1.8942,-1.554539 0.68243,-0.45599 1.4028,-0.84103 2.16107,-1.155121 0.7583,-0.314091 1.53995,-0.551197 2.34491,-0.711319 C 296.86636,52.080059 297.67923,52 298.5,52 c 0.82074,0 1.63361,0.08006 2.43857,0.240185 0.80502,0.160118 1.58667,0.397224 2.34494,0.711315 0.75827,0.314091 1.47864,0.699131 2.16107,1.155125 0.68243,0.455989 1.31384,0.97417 1.89423,1.554535 0.58035,0.580364 1.09854,1.211765 1.55453,1.894203 0.45599,0.682438 0.84104,1.402797 1.15515,2.161083 0.31409,0.758289 0.55118,1.539928 0.71131,2.344917 0.16012,0.804997 0.24017,1.617874 0.2402,2.438637 z" />
          <path id="path50" style="fill:#FFFFFF;fill-opacity:1;fill-rule:nonzero;stroke:none" d="m 25,90.5 c -2e-6,0.820763 -0.08006,1.633636 -0.240185,2.438622 -0.160124,0.804985 -0.397232,1.586624 -0.711324,2.344909 -0.314093,0.758278 -0.699133,1.478638 -1.155123,2.16108 -0.455992,0.682441 -0.974169,1.313842 -1.554535,1.894218 -0.580366,0.58036 -1.211769,1.098541 -1.894209,1.554531 -0.682438,0.45599 -1.4028,0.84103 -2.161085,1.15513 -0.758284,0.31409 -1.539922,0.5512 -2.344912,0.71132 -0.80499,0.16012 -1.617865,0.24018 -2.438627,0.24019 -0.820762,-1e-5 -1.633638,-0.0801 -2.438629,-0.24019 -0.8049919,-0.16012 -1.58663,-0.39723 -2.3449141,-0.71132 -0.7582851,-0.3141 -1.4786468,-0.69914 -2.1610851,-1.15513 C 4.8729334,100.43737 4.2415309,99.919189 3.661165,99.338829 3.0807989,98.758453 2.5626204,98.127052 2.1066296,97.444611 1.6506388,96.762169 1.2655976,96.041809 0.95150572,95.283531 0.63741386,94.525246 0.40030661,93.743607 0.24018396,92.938622 0.08006132,92.133636 0,91.320763 0,90.5 0,89.67923 0.08006132,88.866348 0.24018396,88.061356 0.40030661,87.256371 0.63741386,86.474731 0.95150572,85.716446 1.2655976,84.958153 1.6506388,84.237793 2.1066296,83.555359 2.5626204,82.872917 3.0807989,82.241516 3.661165,81.661156 4.2415309,81.080788 4.8729329,80.562614 5.5553713,80.106628 6.2378097,79.650627 6.9581709,79.265587 7.7164559,78.9515 8.474741,78.637413 9.2563782,78.400307 10.06137,78.240181 10.866362,78.080063 11.679238,78 12.5,78 c 0.820762,0 1.633637,0.08006 2.438627,0.240181 0.80499,0.160126 1.586628,0.397232 2.344912,0.711319 0.758285,0.314087 1.478647,0.699127 2.161085,1.155128 0.68244,0.455986 1.313843,0.97416 1.894209,1.554528 0.580366,0.58036 1.098543,1.211761 1.554535,1.894195 0.45599,0.682442 0.84103,1.402802 1.155123,2.161095 0.314092,0.758285 0.551198,1.539925 0.711322,2.344917 C 24.919937,88.866348 24.999998,89.67923 25,90.5 Z" />
          <path id="path52" style="fill:#FFFFFF;fill-opacity:1;fill-rule:nonzero;stroke:none" d="m 77,90.5 c 0,0.820763 -0.08006,1.633636 -0.240189,2.438622 -0.160125,0.804985 -0.397232,1.586624 -0.711326,2.344909 -0.314095,0.758278 -0.699135,1.478638 -1.155121,2.16108 -0.456001,0.682441 -0.974175,1.313842 -1.554535,1.894218 -0.580368,0.58036 -1.211769,1.098541 -1.894203,1.554531 -0.682442,0.45599 -1.402809,0.84103 -2.161095,1.15513 -0.758278,0.31409 -1.539917,0.5512 -2.344902,0.71132 C 66.133636,102.91993 65.320763,102.99999 64.5,103 c -0.820763,-1e-5 -1.63364,-0.0801 -2.438633,-0.24019 -0.804993,-0.16012 -1.586632,-0.39723 -2.344917,-0.71132 -0.758286,-0.3141 -1.478646,-0.69914 -2.161083,-1.15513 -0.682442,-0.45599 -1.313843,-0.974171 -1.894207,-1.554531 -0.580369,-0.580376 -1.098549,-1.211777 -1.554539,-1.894218 -0.45599,-0.682442 -0.841034,-1.402802 -1.155125,-2.16108 C 52.637405,94.525246 52.400299,93.743607 52.240177,92.938622 52.080055,92.133636 51.999996,91.320763 52,90.5 c -4e-6,-0.82077 0.08006,-1.633652 0.240177,-2.438644 0.160122,-0.804985 0.397232,-1.586625 0.711323,-2.34491 0.314091,-0.758293 0.699131,-1.478653 1.155121,-2.161087 0.45599,-0.682442 0.97417,-1.313843 1.554539,-1.894203 0.580364,-0.580368 1.211765,-1.098542 1.894203,-1.554528 0.682438,-0.456001 1.402797,-0.841041 2.161083,-1.155128 0.758289,-0.314087 1.539928,-0.551193 2.344917,-0.711319 C 62.86636,78.080063 63.679237,78 64.5,78 c 0.820763,0 1.633636,0.08006 2.438629,0.240181 0.804985,0.160126 1.586624,0.397232 2.344902,0.711319 0.758286,0.314087 1.478653,0.699127 2.161095,1.155128 0.682434,0.455986 1.313835,0.97416 1.894203,1.554528 0.58036,0.58036 1.098534,1.211761 1.554535,1.894195 0.455986,0.682442 0.841026,1.402802 1.155121,2.161095 0.314094,0.758285 0.551201,1.539925 0.711326,2.344917 C 76.919937,88.866348 77,89.67923 77,90.5 Z" />
          <path id="path54" style="fill:#FFFFFF;fill-opacity:1;fill-rule:nonzero;stroke:none" d="m 103,90.5 c -1e-5,0.820763 -0.0801,1.633636 -0.24019,2.438622 -0.16012,0.804985 -0.39723,1.586624 -0.71132,2.344909 -0.3141,0.758278 -0.69914,1.478638 -1.15513,2.16108 -0.45599,0.682441 -0.974171,1.313842 -1.554531,1.894218 -0.580376,0.58036 -1.211777,1.098541 -1.894218,1.554531 -0.682442,0.45599 -1.402802,0.84103 -2.16108,1.15513 -0.758285,0.31409 -1.539924,0.5512 -2.344909,0.71132 C 92.133636,102.91993 91.320763,102.99999 90.5,103 c -0.82077,-1e-5 -1.633652,-0.0801 -2.438644,-0.24019 -0.804985,-0.16012 -1.586625,-0.39723 -2.34491,-0.71132 -0.758293,-0.3141 -1.478653,-0.69914 -2.161087,-1.15513 -0.682442,-0.45599 -1.313843,-0.974171 -1.894203,-1.554531 -0.580368,-0.580376 -1.098549,-1.211777 -1.554535,-1.894218 -0.455994,-0.682442 -0.841034,-1.402802 -1.155129,-2.16108 C 78.637398,94.525246 78.400291,93.743607 78.240173,92.938622 78.080055,92.133636 77.999992,91.320763 78,90.5 c -8e-6,-0.82077 0.08006,-1.633652 0.240173,-2.438644 0.160118,-0.804985 0.397225,-1.586625 0.711319,-2.34491 0.314095,-0.758293 0.699135,-1.478653 1.155129,-2.161087 0.455986,-0.682442 0.974167,-1.313843 1.554535,-1.894203 0.58036,-0.580368 1.211761,-1.098542 1.894195,-1.554528 0.682442,-0.456001 1.402802,-0.841041 2.161095,-1.155128 0.758285,-0.314087 1.539925,-0.551193 2.344917,-0.711319 C 88.866348,78.080063 89.67923,78 90.5,78 c 0.820763,0 1.633636,0.08006 2.438622,0.240181 0.804985,0.160126 1.586624,0.397232 2.344909,0.711319 0.758278,0.314087 1.478638,0.699127 2.16108,1.155128 0.682441,0.455986 1.313842,0.97416 1.894218,1.554528 0.58036,0.58036 1.098541,1.211761 1.554531,1.894195 0.45599,0.682442 0.84103,1.402802 1.15513,2.161095 0.31409,0.758285 0.5512,1.539925 0.71132,2.344917 C 102.91993,88.866348 102.99999,89.67923 103,90.5 Z" />
          <path id="path56" style="fill:#FFFFFF;fill-opacity:1;fill-rule:nonzero;stroke:none" d="m 129,90.5 c 0,0.820763 -0.0801,1.633636 -0.24019,2.438622 -0.16014,0.804985 -0.39725,1.586624 -0.71133,2.344909 -0.3141,0.758278 -0.69915,1.478638 -1.15513,2.16108 -0.45599,0.682441 -0.97417,1.313842 -1.55453,1.894218 -0.58037,0.58036 -1.21177,1.098541 -1.89421,1.554531 -0.68244,0.45599 -1.4028,0.84103 -2.16109,1.15513 -0.75828,0.31409 -1.53992,0.5512 -2.34491,0.71132 -0.80498,0.16012 -1.61786,0.24018 -2.43861,0.24019 -0.82076,-1e-5 -1.63364,-0.0801 -2.43864,-0.24019 -0.805,-0.16012 -1.58664,-0.39723 -2.34492,-0.71132 -0.75829,-0.3141 -1.47865,-0.69914 -2.16108,-1.15513 -0.68244,-0.45599 -1.31384,-0.974171 -1.89421,-1.554531 -0.58038,-0.580376 -1.09856,-1.211777 -1.55454,-1.894218 -0.45599,-0.682442 -0.84103,-1.402802 -1.15512,-2.16108 -0.3141,-0.758285 -0.5512,-1.539924 -0.71132,-2.344909 C 104.08005,92.133636 103.99999,91.320763 104,90.5 c -1e-5,-0.82077 0.08,-1.633652 0.24017,-2.438644 0.16011,-0.804985 0.39722,-1.586625 0.71132,-2.34491 0.31409,-0.758293 0.69913,-1.478653 1.15512,-2.161087 0.45598,-0.682442 0.97416,-1.313843 1.55454,-1.894203 0.58037,-0.580368 1.21177,-1.098542 1.8942,-1.554528 0.68244,-0.456001 1.4028,-0.841041 2.16109,-1.155128 0.75828,-0.314087 1.53992,-0.551193 2.34492,-0.711319 C 114.86636,78.080063 115.67924,78 116.5,78 c 0.82075,0 1.63363,0.08006 2.43861,0.240181 0.80499,0.160126 1.58662,0.397232 2.34491,0.711319 0.75829,0.314087 1.47865,0.699127 2.16109,1.155128 0.68244,0.455986 1.31384,0.97416 1.89421,1.554528 0.58036,0.58036 1.09854,1.211761 1.55453,1.894195 0.45598,0.682442 0.84103,1.402802 1.15513,2.161095 0.31408,0.758285 0.55119,1.539925 0.71133,2.344917 C 128.91994,88.866348 129,89.67923 129,90.5 Z" />
          <path id="path58" style="fill:#FFFFFF;fill-opacity:1;fill-rule:nonzero;stroke:none" d="m 207,90.5 c -2e-5,0.820763 -0.0801,1.633636 -0.24022,2.438622 -0.16012,0.804985 -0.39723,1.586624 -0.71132,2.344909 -0.3141,0.758278 -0.69914,1.478638 -1.15513,2.16108 -0.45598,0.682441 -0.97414,1.313842 -1.55451,1.894218 -0.58037,0.58036 -1.21178,1.098541 -1.89421,1.554531 -0.68245,0.45599 -1.4028,0.84103 -2.16109,1.15513 -0.75828,0.31409 -1.53993,0.5512 -2.34491,0.71132 -0.80497,0.16012 -1.61785,0.24018 -2.43861,0.24019 -0.82077,-1e-5 -1.63365,-0.0801 -2.43864,-0.24019 -0.805,-0.16012 -1.58664,-0.39723 -2.34493,-0.71132 -0.75828,-0.3141 -1.47865,-0.69914 -2.16109,-1.15513 -0.68243,-0.45599 -1.31382,-0.974171 -1.89419,-1.554531 -0.58037,-0.580376 -1.09856,-1.211777 -1.55455,-1.894218 -0.45598,-0.682442 -0.84102,-1.402802 -1.15511,-2.16108 -0.3141,-0.758285 -0.55121,-1.539924 -0.71133,-2.344909 C 182.08005,92.133636 181.99998,91.320763 182,90.5 c -2e-5,-0.82077 0.08,-1.633652 0.24016,-2.438644 0.16011,-0.804985 0.39721,-1.586625 0.71132,-2.34491 0.31408,-0.758293 0.69912,-1.478653 1.15512,-2.161087 0.45599,-0.682442 0.97418,-1.313843 1.55455,-1.894203 0.58037,-0.580368 1.21176,-1.098542 1.89419,-1.554528 0.68244,-0.456001 1.40281,-0.841041 2.16109,-1.155128 0.75829,-0.314087 1.53993,-0.551193 2.34493,-0.711319 C 192.86635,78.080063 193.67923,78 194.5,78 c 0.82076,0 1.63364,0.08006 2.43861,0.240181 0.80498,0.160126 1.58661,0.397232 2.3449,0.711319 0.75828,0.314087 1.47865,0.699127 2.1611,1.155128 0.68243,0.455986 1.31384,0.97416 1.89421,1.554528 0.58037,0.58036 1.09854,1.211761 1.55452,1.894195 0.45599,0.682442 0.84104,1.402802 1.15514,2.161095 0.31407,0.758285 0.55118,1.539925 0.7113,2.344917 0.16014,0.804985 0.2402,1.617867 0.24022,2.438637 z" />
          <path id="path60" style="fill:#FFFFFF;fill-opacity:1;fill-rule:nonzero;stroke:none" d="m 259,90.5 c 0,0.820763 -0.0801,1.633636 -0.2402,2.438622 -0.16013,0.804985 -0.39725,1.586624 -0.71134,2.344909 -0.31408,0.758278 -0.69913,1.478638 -1.15512,2.16108 -0.45599,0.682441 -0.97417,1.313842 -1.55452,1.894218 -0.58037,0.58036 -1.21178,1.098541 -1.89422,1.554531 -0.68244,0.45599 -1.40279,0.84103 -2.16108,1.15513 -0.75828,0.31409 -1.53991,0.5512 -2.34492,0.71132 -0.80498,0.16012 -1.61784,0.24018 -2.4386,0.24019 -0.82076,-1e-5 -1.63364,-0.0801 -2.43863,-0.24019 -0.80501,-0.16012 -1.58665,-0.39723 -2.34494,-0.71132 -0.75828,-0.3141 -1.47865,-0.69914 -2.1611,-1.15513 -0.68244,-0.45599 -1.31383,-0.974171 -1.89418,-1.554531 -0.58037,-0.580376 -1.09856,-1.211777 -1.55455,-1.894218 -0.456,-0.682442 -0.84104,-1.402802 -1.15512,-2.16108 -0.31411,-0.758285 -0.5512,-1.539924 -0.71131,-2.344909 C 234.08005,92.133636 233.99998,91.320763 234,90.5 c -2e-5,-0.82077 0.08,-1.633652 0.24016,-2.438644 0.16011,-0.804985 0.39721,-1.586625 0.71132,-2.34491 0.31408,-0.758293 0.69912,-1.478653 1.1551,-2.161087 0.45601,-0.682442 0.9742,-1.313843 1.55457,-1.894203 0.58035,-0.580368 1.21174,-1.098542 1.89418,-1.554528 0.68245,-0.456001 1.40282,-0.841041 2.1611,-1.155128 0.75829,-0.314087 1.53993,-0.551193 2.34494,-0.711319 C 244.86636,78.080063 245.67924,78 246.5,78 c 0.82076,0 1.63362,0.08006 2.4386,0.240181 0.80499,0.160126 1.58662,0.397232 2.34491,0.711319 0.75828,0.314087 1.47865,0.699127 2.16109,1.155128 0.68244,0.455986 1.31385,0.97416 1.89422,1.554528 0.58035,0.58036 1.09853,1.211761 1.55452,1.894195 0.45599,0.682442 0.84104,1.402802 1.15512,2.161095 0.31409,0.758285 0.55121,1.539925 0.71134,2.344917 C 258.91992,88.866348 259,89.67923 259,90.5 Z" />
          <path id="path62" style="fill:#FFFFFF;fill-opacity:1;fill-rule:nonzero;stroke:none" d="m 311,90.5 c -3e-5,0.820763 -0.0801,1.633636 -0.2402,2.438622 -0.16013,0.804985 -0.39722,1.586624 -0.71131,2.344909 -0.31411,0.758278 -0.69916,1.478638 -1.15512,2.16108 -0.45602,0.682441 -0.97421,1.313842 -1.55456,1.894218 -0.58039,0.58036 -1.2118,1.098541 -1.89423,1.554531 -0.68243,0.45599 -1.4028,0.84103 -2.16107,1.15513 -0.75827,0.31409 -1.53992,0.5512 -2.34494,0.71132 -0.80496,0.16012 -1.61783,0.24018 -2.43857,0.24019 -0.82077,-1e-5 -1.63364,-0.0801 -2.43866,-0.24019 -0.80496,-0.16012 -1.58661,-0.39723 -2.34491,-0.71132 -0.75827,-0.3141 -1.47864,-0.69914 -2.16107,-1.15513 -0.68244,-0.45599 -1.31384,-0.974171 -1.8942,-1.554531 -0.58035,-0.580376 -1.09854,-1.211777 -1.55453,-1.894218 -0.45603,-0.682442 -0.84107,-1.402802 -1.15515,-2.16108 -0.31409,-0.758285 -0.55118,-1.539924 -0.71131,-2.344909 C 286.08005,92.133636 286,91.320763 286,90.5 c 0,-0.82077 0.0801,-1.633652 0.24017,-2.438644 0.16013,-0.804985 0.39722,-1.586625 0.71131,-2.34491 0.31408,-0.758293 0.69912,-1.478653 1.15515,-2.161087 0.45599,-0.682442 0.97418,-1.313843 1.55453,-1.894203 0.58036,-0.580368 1.21176,-1.098542 1.8942,-1.554528 0.68243,-0.456001 1.4028,-0.841041 2.16107,-1.155128 0.7583,-0.314087 1.53995,-0.551193 2.34491,-0.711319 C 296.86636,78.080063 297.67923,78 298.5,78 c 0.82074,0 1.63361,0.08006 2.43857,0.240181 0.80502,0.160126 1.58667,0.397232 2.34494,0.711319 0.75827,0.314087 1.47864,0.699127 2.16107,1.155128 0.68243,0.455986 1.31384,0.97416 1.89423,1.554528 0.58035,0.58036 1.09854,1.211761 1.55453,1.894195 0.45599,0.682442 0.84104,1.402802 1.15515,2.161095 0.31409,0.758285 0.55118,1.539925 0.71131,2.344917 0.16012,0.804985 0.24017,1.617867 0.2402,2.438637 z" />
          <path id="path64" style="fill:#FFFFFF;fill-opacity:1;fill-rule:nonzero;stroke:none" d="m 25,116.5 c -2e-6,0.82075 -0.08006,1.63363 -0.240185,2.43861 -0.160124,0.80499 -0.397232,1.58662 -0.711324,2.34491 -0.314093,0.75829 -0.699133,1.47865 -1.155123,2.16109 -0.455992,0.68244 -0.974169,1.31384 -1.554535,1.89421 -0.580366,0.58036 -1.211769,1.09854 -1.894209,1.55453 -0.682438,0.45598 -1.4028,0.84103 -2.161085,1.15513 -0.758284,0.31408 -1.539922,0.55119 -2.344912,0.71133 C 14.133637,128.91994 13.320762,129 12.5,129 c -0.820762,0 -1.633638,-0.0801 -2.438629,-0.24019 -0.8049919,-0.16014 -1.58663,-0.39725 -2.3449141,-0.71133 -0.7582851,-0.3141 -1.4786468,-0.69915 -2.1610851,-1.15513 -0.6824384,-0.45599 -1.3138409,-0.97417 -1.8942068,-1.55453 -0.5803661,-0.58037 -1.0985446,-1.21177 -1.5545354,-1.89421 -0.4559908,-0.68244 -0.841032,-1.4028 -1.15512388,-2.16109 C 0.63741386,120.52524 0.40030661,119.7436 0.24018396,118.93861 0.08006132,118.13363 0,117.32075 0,116.5 c 0,-0.82076 0.08006132,-1.63364 0.24018396,-2.43864 0.16012265,-0.805 0.3972299,-1.58664 0.71132176,-2.34492 0.31409188,-0.75829 0.69913308,-1.47865 1.15512388,-2.16108 0.4559908,-0.68244 0.9741693,-1.31384 1.5545354,-1.89421 0.5803659,-0.58037 1.2117679,-1.09855 1.8942063,-1.55454 0.6824384,-0.45599 1.4027996,-0.84102 2.1610846,-1.15512 C 8.474741,104.6374 9.2563782,104.4003 10.06137,104.24018 10.866362,104.08006 11.679238,104 12.5,104 c 0.820762,0 1.633637,0.0801 2.438627,0.24018 0.80499,0.16012 1.586628,0.39722 2.344912,0.71131 0.758285,0.31409 1.478647,0.69913 2.161085,1.15512 0.68244,0.45599 1.313843,0.97417 1.894209,1.55454 0.580366,0.58037 1.098543,1.21177 1.554535,1.8942 0.45599,0.68244 0.84103,1.4028 1.155123,2.16109 0.314092,0.75828 0.551198,1.53992 0.711322,2.34492 0.160124,0.805 0.240185,1.61788 0.240187,2.43864 z" />
          <path id="path66" style="fill:#FFFFFF;fill-opacity:1;fill-rule:nonzero;stroke:none" d="m 103,116.5 c -1e-5,0.82075 -0.0801,1.63363 -0.24019,2.43861 -0.16012,0.80499 -0.39723,1.58662 -0.71132,2.34491 -0.3141,0.75829 -0.69914,1.47865 -1.15513,2.16109 -0.45599,0.68244 -0.974171,1.31384 -1.554531,1.89421 -0.580376,0.58036 -1.211777,1.09854 -1.894218,1.55453 -0.682442,0.45598 -1.402802,0.84103 -2.16108,1.15513 -0.758285,0.31408 -1.539924,0.55119 -2.344909,0.71133 C 92.133636,128.91994 91.320763,129 90.5,129 c -0.82077,0 -1.633652,-0.0801 -2.438644,-0.24019 -0.804985,-0.16014 -1.586625,-0.39725 -2.34491,-0.71133 -0.758293,-0.3141 -1.478653,-0.69915 -2.161087,-1.15513 -0.682442,-0.45599 -1.313843,-0.97417 -1.894203,-1.55453 -0.580368,-0.58037 -1.098549,-1.21177 -1.554535,-1.89421 -0.455994,-0.68244 -0.841034,-1.4028 -1.155129,-2.16109 -0.314094,-0.75828 -0.551201,-1.53992 -0.711319,-2.34491 C 78.080055,118.13363 77.999992,117.32075 78,116.5 c -8e-6,-0.82076 0.08006,-1.63364 0.240173,-2.43864 0.160118,-0.805 0.397225,-1.58664 0.711319,-2.34492 0.314095,-0.75829 0.699135,-1.47865 1.155129,-2.16108 0.455986,-0.68244 0.974167,-1.31384 1.554535,-1.89421 0.58036,-0.58037 1.211761,-1.09855 1.894195,-1.55454 0.682442,-0.45599 1.402802,-0.84102 2.161095,-1.15512 0.758285,-0.31409 1.539925,-0.55119 2.344917,-0.71131 C 88.866348,104.08006 89.67923,104 90.5,104 c 0.820763,0 1.633636,0.0801 2.438622,0.24018 0.804985,0.16012 1.586624,0.39722 2.344909,0.71131 0.758278,0.31409 1.478638,0.69913 2.16108,1.15512 0.682441,0.45599 1.313842,0.97417 1.894218,1.55454 0.58036,0.58037 1.098541,1.21177 1.554531,1.8942 0.45599,0.68244 0.84103,1.4028 1.15513,2.16109 0.31409,0.75828 0.5512,1.53992 0.71132,2.34492 0.16012,0.805 0.24018,1.61788 0.24019,2.43864 z" />
          <path id="path68" style="fill:#FFFFFF;fill-opacity:1;fill-rule:nonzero;stroke:none" d="m 233,116.5 c -2e-5,0.82075 -0.0801,1.63363 -0.2402,2.43861 -0.16013,0.80499 -0.39724,1.58662 -0.71134,2.34491 -0.3141,0.75829 -0.69914,1.47865 -1.15512,2.16109 -0.45599,0.68244 -0.97417,1.31384 -1.55453,1.89421 -0.58037,0.58036 -1.21178,1.09854 -1.89423,1.55453 -0.68242,0.45598 -1.40279,0.84103 -2.16107,1.15513 -0.75829,0.31408 -1.53992,0.55119 -2.34491,0.71133 C 222.13362,128.91994 221.32076,129 220.5,129 c -0.82076,0 -1.63364,-0.0801 -2.43864,-0.24019 -0.805,-0.16014 -1.58664,-0.39725 -2.34493,-0.71133 -0.75828,-0.3141 -1.47865,-0.69915 -2.1611,-1.15513 -0.68244,-0.45599 -1.31383,-0.97417 -1.8942,-1.55453 -0.58037,-0.58037 -1.09855,-1.21177 -1.55453,-1.89421 -0.456,-0.68244 -0.84104,-1.4028 -1.15512,-2.16109 -0.31411,-0.75828 -0.5512,-1.53992 -0.71131,-2.34491 -0.16014,-0.80498 -0.24019,-1.61786 -0.24017,-2.43861 -2e-5,-0.82076 0.08,-1.63364 0.24016,-2.43864 0.16011,-0.805 0.39721,-1.58664 0.71132,-2.34492 0.31408,-0.75829 0.69912,-1.47865 1.15512,-2.16108 0.45598,-0.68244 0.97416,-1.31384 1.55453,-1.89421 0.58037,-0.58037 1.21176,-1.09855 1.8942,-1.55454 0.68245,-0.45599 1.40282,-0.84102 2.1611,-1.15512 0.75829,-0.31409 1.53993,-0.55119 2.34493,-0.71131 C 218.86636,104.08006 219.67924,104 220.5,104 c 0.82076,0 1.63364,0.0801 2.43861,0.24018 0.80498,0.16012 1.58661,0.39722 2.3449,0.71131 0.75828,0.31409 1.47865,0.69913 2.16107,1.15512 0.68245,0.45599 1.31386,0.97417 1.89423,1.55454 0.58036,0.58037 1.09854,1.21177 1.55452,1.8942 0.45599,0.68244 0.84103,1.4028 1.15513,2.16109 0.3141,0.75828 0.55121,1.53992 0.71134,2.34492 0.16012,0.805 0.24018,1.61788 0.2402,2.43864 z" />
          <path id="path70" style="fill:#FFFFFF;fill-opacity:1;fill-rule:nonzero;stroke:none" d="m 311,116.5 c -3e-5,0.82075 -0.0801,1.63363 -0.2402,2.43861 -0.16013,0.80499 -0.39722,1.58662 -0.71131,2.34491 -0.31411,0.75829 -0.69916,1.47865 -1.15512,2.16109 -0.45602,0.68244 -0.97421,1.31384 -1.55456,1.89421 -0.58039,0.58036 -1.2118,1.09854 -1.89423,1.55453 -0.68243,0.45598 -1.4028,0.84103 -2.16107,1.15513 -0.75827,0.31408 -1.53992,0.55119 -2.34494,0.71133 C 300.13361,128.91994 299.32074,129 298.5,129 c -0.82077,0 -1.63364,-0.0801 -2.43866,-0.24019 -0.80496,-0.16014 -1.58661,-0.39725 -2.34491,-0.71133 -0.75827,-0.3141 -1.47864,-0.69915 -2.16107,-1.15513 -0.68244,-0.45599 -1.31384,-0.97417 -1.8942,-1.55453 -0.58035,-0.58037 -1.09854,-1.21177 -1.55453,-1.89421 -0.45603,-0.68244 -0.84107,-1.4028 -1.15515,-2.16109 -0.31409,-0.75828 -0.55118,-1.53992 -0.71131,-2.34491 C 286.08005,118.13363 286,117.32075 286,116.5 c 0,-0.82076 0.0801,-1.63364 0.24017,-2.43864 0.16013,-0.805 0.39722,-1.58664 0.71131,-2.34492 0.31408,-0.75829 0.69912,-1.47865 1.15515,-2.16108 0.45599,-0.68244 0.97418,-1.31384 1.55453,-1.89421 0.58036,-0.58037 1.21176,-1.09855 1.8942,-1.55454 0.68243,-0.45599 1.4028,-0.84102 2.16107,-1.15512 0.7583,-0.31409 1.53995,-0.55119 2.34491,-0.71131 C 296.86636,104.08006 297.67923,104 298.5,104 c 0.82074,0 1.63361,0.0801 2.43857,0.24018 0.80502,0.16012 1.58667,0.39722 2.34494,0.71131 0.75827,0.31409 1.47864,0.69913 2.16107,1.15512 0.68243,0.45599 1.31384,0.97417 1.89423,1.55454 0.58035,0.58037 1.09854,1.21177 1.55453,1.8942 0.45599,0.68244 0.84104,1.4028 1.15515,2.16109 0.31409,0.75828 0.55118,1.53992 0.71131,2.34492 0.16012,0.805 0.24017,1.61788 0.2402,2.43864 z" />
          <path id="path72" style="fill:#FFFFFF;fill-opacity:1;fill-rule:nonzero;stroke:none" d="m 25,142.5 c -2e-6,0.82075 -0.08006,1.63362 -0.240185,2.43861 -0.160124,0.80498 -0.397232,1.58663 -0.711324,2.34491 -0.314093,0.75829 -0.699133,1.47866 -1.155123,2.16109 -0.455992,0.68245 -0.974169,1.31386 -1.554535,1.89423 -0.580366,0.58035 -1.211769,1.09852 -1.894209,1.55453 -0.682438,0.45598 -1.4028,0.84102 -2.161085,1.15512 -0.758284,0.3141 -1.539922,0.55121 -2.344912,0.71132 C 14.133637,154.91994 13.320762,155 12.5,155 c -0.820762,0 -1.633638,-0.0801 -2.438629,-0.24019 -0.8049919,-0.16011 -1.58663,-0.39722 -2.3449141,-0.71132 -0.7582851,-0.3141 -1.4786468,-0.69914 -2.1610851,-1.15512 -0.6824384,-0.45601 -1.3138409,-0.97418 -1.8942068,-1.55453 -0.5803661,-0.58037 -1.0985446,-1.21178 -1.5545354,-1.89423 -0.4559908,-0.68243 -0.841032,-1.4028 -1.15512388,-2.16109 C 0.63741386,146.52524 0.40030661,145.74359 0.24018396,144.93861 0.08006132,144.13362 0,143.32075 0,142.5 c 0,-0.82077 0.08006132,-1.63365 0.24018396,-2.43864 0.16012265,-0.80498 0.3972299,-1.58661 0.71132176,-2.3449 0.31409188,-0.75828 0.69913308,-1.47864 1.15512388,-2.16109 0.4559908,-0.68243 0.9741693,-1.31384 1.5545354,-1.89421 0.5803659,-0.58037 1.2117679,-1.09854 1.8942063,-1.55453 0.6824384,-0.45601 1.4027996,-0.84105 2.1610846,-1.15514 C 8.474741,130.6374 9.2563782,130.4003 10.06137,130.24019 10.866362,130.08006 11.679238,130 12.5,130 c 0.820762,0 1.633637,0.0801 2.438627,0.24019 0.80499,0.16011 1.586628,0.39721 2.344912,0.7113 0.758285,0.31409 1.478647,0.69913 2.161085,1.15514 0.68244,0.45599 1.313843,0.97416 1.894209,1.55453 0.580366,0.58037 1.098543,1.21178 1.554535,1.89421 0.45599,0.68245 0.84103,1.40281 1.155123,2.16109 0.314092,0.75829 0.551198,1.53992 0.711322,2.3449 0.160124,0.80499 0.240185,1.61787 0.240187,2.43864 z" />
          <path id="path74" style="fill:#FFFFFF;fill-opacity:1;fill-rule:nonzero;stroke:none" d="m 155,142.5 c 0,0.82075 -0.0801,1.63362 -0.24019,2.43861 -0.16011,0.80498 -0.39722,1.58663 -0.71132,2.34491 -0.3141,0.75829 -0.69914,1.47866 -1.15512,2.16109 -0.45601,0.68245 -0.97418,1.31386 -1.55453,1.89423 -0.58037,0.58035 -1.21178,1.09852 -1.89423,1.55453 -0.68243,0.45598 -1.4028,0.84102 -2.16109,1.15512 -0.75828,0.3141 -1.53993,0.55121 -2.34491,0.71132 C 144.13362,154.91994 143.32075,155 142.5,155 c -0.82077,0 -1.63365,-0.0801 -2.43864,-0.24019 -0.80498,-0.16011 -1.58661,-0.39722 -2.3449,-0.71132 -0.75828,-0.3141 -1.47864,-0.69914 -2.16109,-1.15512 -0.68243,-0.45601 -1.31384,-0.97418 -1.89421,-1.55453 -0.58037,-0.58037 -1.09854,-1.21178 -1.55453,-1.89423 -0.45601,-0.68243 -0.84105,-1.4028 -1.15514,-2.16109 -0.3141,-0.75828 -0.55121,-1.53993 -0.71132,-2.34491 -0.16012,-0.80499 -0.24019,-1.61786 -0.24017,-2.43861 -2e-5,-0.82077 0.08,-1.63365 0.24017,-2.43864 0.16011,-0.80498 0.39722,-1.58661 0.71132,-2.3449 0.31409,-0.75828 0.69913,-1.47864 1.15514,-2.16109 0.45599,-0.68243 0.97416,-1.31384 1.55453,-1.89421 0.58037,-0.58037 1.21178,-1.09854 1.89421,-1.55453 0.68245,-0.45601 1.40281,-0.84105 2.16109,-1.15514 0.75829,-0.31409 1.53992,-0.55119 2.3449,-0.7113 C 140.86635,130.08006 141.67923,130 142.5,130 c 0.82075,0 1.63362,0.0801 2.43861,0.24019 0.80498,0.16011 1.58663,0.39721 2.34491,0.7113 0.75829,0.31409 1.47866,0.69913 2.16109,1.15514 0.68245,0.45599 1.31386,0.97416 1.89423,1.55453 0.58035,0.58037 1.09852,1.21178 1.55453,1.89421 0.45598,0.68245 0.84102,1.40281 1.15512,2.16109 0.3141,0.75829 0.55121,1.53992 0.71132,2.3449 C 154.91994,140.86635 155,141.67923 155,142.5 Z" />
          <path id="path76" style="fill:#FFFFFF;fill-opacity:1;fill-rule:nonzero;stroke:none" d="m 181,142.5 c -2e-5,0.82075 -0.0801,1.63362 -0.24022,2.43861 -0.16012,0.80498 -0.39723,1.58663 -0.71132,2.34491 -0.3141,0.75829 -0.69914,1.47866 -1.15513,2.16109 -0.45598,0.68245 -0.97416,1.31386 -1.55451,1.89423 -0.58037,0.58035 -1.21176,1.09852 -1.89421,1.55453 -0.68243,0.45598 -1.4028,0.84102 -2.16109,1.15512 -0.75828,0.3141 -1.53991,0.55121 -2.34489,0.71132 C 170.13362,154.91994 169.32076,155 168.5,155 c -0.82077,0 -1.63365,-0.0801 -2.43864,-0.24019 -0.80501,-0.16011 -1.58664,-0.39722 -2.34491,-0.71132 -0.75829,-0.3141 -1.47866,-0.69914 -2.16109,-1.15512 -0.68245,-0.45601 -1.31384,-0.97418 -1.89421,-1.55453 -0.58037,-0.58037 -1.09854,-1.21178 -1.55455,-1.89423 -0.45598,-0.68243 -0.84102,-1.4028 -1.15511,-2.16109 -0.3141,-0.75828 -0.55121,-1.53993 -0.71133,-2.34491 -0.16011,-0.80499 -0.24018,-1.61786 -0.24016,-2.43861 -2e-5,-0.82077 0.08,-1.63365 0.24016,-2.43864 0.16012,-0.80498 0.39723,-1.58661 0.71133,-2.3449 0.31409,-0.75828 0.69913,-1.47864 1.15511,-2.16109 0.45601,-0.68243 0.97418,-1.31384 1.55455,-1.89421 0.58037,-0.58037 1.21176,-1.09854 1.89421,-1.55453 0.68243,-0.45601 1.4028,-0.84105 2.16109,-1.15514 0.75827,-0.31409 1.5399,-0.55119 2.34491,-0.7113 C 166.86635,130.08006 167.67923,130 168.5,130 c 0.82076,0 1.63362,0.0801 2.43863,0.24019 0.80498,0.16011 1.58661,0.39721 2.34489,0.7113 0.75829,0.31409 1.47866,0.69913 2.16109,1.15514 0.68245,0.45599 1.31384,0.97416 1.89421,1.55453 0.58035,0.58037 1.09853,1.21178 1.55452,1.89421 0.45599,0.68245 0.84104,1.40281 1.15514,2.16109 0.31408,0.75829 0.55119,1.53992 0.71132,2.3449 0.16011,0.80499 0.24018,1.61787 0.2402,2.43864 z" />
          <path id="path78" style="fill:#FFFFFF;fill-opacity:1;fill-rule:nonzero;stroke:none" d="m 311,142.5 c -3e-5,0.82075 -0.0801,1.63362 -0.2402,2.43861 -0.16013,0.80498 -0.39722,1.58663 -0.71131,2.34491 -0.31411,0.75829 -0.69916,1.47866 -1.15512,2.16109 -0.45602,0.68245 -0.97421,1.31386 -1.55456,1.89423 -0.58039,0.58035 -1.2118,1.09852 -1.89423,1.55453 -0.68243,0.45598 -1.4028,0.84102 -2.16107,1.15512 -0.75827,0.3141 -1.53992,0.55121 -2.34494,0.71132 C 300.13361,154.91994 299.32074,155 298.5,155 c -0.82077,0 -1.63364,-0.0801 -2.43866,-0.24019 -0.80496,-0.16011 -1.58661,-0.39722 -2.34491,-0.71132 -0.75827,-0.3141 -1.47864,-0.69914 -2.16107,-1.15512 -0.68244,-0.45601 -1.31384,-0.97418 -1.8942,-1.55453 -0.58035,-0.58037 -1.09854,-1.21178 -1.55453,-1.89423 -0.45603,-0.68243 -0.84107,-1.4028 -1.15515,-2.16109 -0.31409,-0.75828 -0.55118,-1.53993 -0.71131,-2.34491 C 286.08005,144.13362 286,143.32075 286,142.5 c 0,-0.82077 0.0801,-1.63365 0.24017,-2.43864 0.16013,-0.80498 0.39722,-1.58661 0.71131,-2.3449 0.31408,-0.75828 0.69912,-1.47864 1.15515,-2.16109 0.45599,-0.68243 0.97418,-1.31384 1.55453,-1.89421 0.58036,-0.58037 1.21176,-1.09854 1.8942,-1.55453 0.68243,-0.45601 1.4028,-0.84105 2.16107,-1.15514 0.7583,-0.31409 1.53995,-0.55119 2.34491,-0.7113 C 296.86636,130.08006 297.67923,130 298.5,130 c 0.82074,0 1.63361,0.0801 2.43857,0.24019 0.80502,0.16011 1.58667,0.39721 2.34494,0.7113 0.75827,0.31409 1.47864,0.69913 2.16107,1.15514 0.68243,0.45599 1.31384,0.97416 1.89423,1.55453 0.58035,0.58037 1.09854,1.21178 1.55453,1.89421 0.45599,0.68245 0.84104,1.40281 1.15515,2.16109 0.31409,0.75829 0.55118,1.53992 0.71131,2.3449 0.16012,0.80499 0.24017,1.61787 0.2402,2.43864 z" />
          <path id="path80" style="fill:#FFFFFF;fill-opacity:1;fill-rule:nonzero;stroke:none" d="m 25,168.5 c -2e-6,0.82076 -0.08006,1.63362 -0.240185,2.43863 -0.160124,0.80498 -0.397232,1.58661 -0.711324,2.34489 -0.314093,0.75829 -0.699133,1.47866 -1.155123,2.16109 -0.455992,0.68245 -0.974169,1.31384 -1.554535,1.89421 -0.580366,0.58035 -1.211769,1.09853 -1.894209,1.55452 -0.682438,0.45599 -1.4028,0.84104 -2.161085,1.15514 -0.758284,0.31408 -1.539922,0.55119 -2.344912,0.71132 -0.80499,0.16011 -1.617865,0.24018 -2.438627,0.2402 -0.820762,-2e-5 -1.633638,-0.0801 -2.438629,-0.24022 -0.8049919,-0.16012 -1.58663,-0.39723 -2.3449141,-0.71132 -0.7582851,-0.3141 -1.4786468,-0.69914 -2.1610851,-1.15513 -0.6824384,-0.45598 -1.3138409,-0.97416 -1.8942068,-1.55451 -0.5803661,-0.58037 -1.0985446,-1.21176 -1.5545354,-1.89421 -0.4559908,-0.68243 -0.841032,-1.4028 -1.15512388,-2.16109 C 0.63741386,172.52524 0.40030661,171.74361 0.24018396,170.93863 0.08006132,170.13362 0,169.32076 0,168.5 c 0,-0.82077 0.08006132,-1.63365 0.24018396,-2.43864 0.16012265,-0.80501 0.3972299,-1.58664 0.71132176,-2.34491 0.31409188,-0.75829 0.69913308,-1.47866 1.15512388,-2.16109 0.4559908,-0.68245 0.9741693,-1.31384 1.5545354,-1.89421 0.5803659,-0.58037 1.2117679,-1.09854 1.8942063,-1.55454 0.6824384,-0.45599 1.4027996,-0.84103 2.1610846,-1.15512 0.7582851,-0.3141 1.5399223,-0.55121 2.3449141,-0.71132 C 10.866362,156.08006 11.679238,156 12.5,156 c 0.820762,0 1.633637,0.0801 2.438627,0.24017 0.80499,0.16011 1.586628,0.39722 2.344912,0.71132 0.758285,0.31409 1.478647,0.69913 2.161085,1.15512 0.68244,0.456 1.313843,0.97417 1.894209,1.55454 0.580366,0.58037 1.098543,1.21176 1.554535,1.89421 0.45599,0.68243 0.84103,1.4028 1.155123,2.16109 0.314092,0.75827 0.551198,1.5399 0.711322,2.34491 0.160124,0.80499 0.240185,1.61787 0.240187,2.43864 z" />
          <path id="path82" style="fill:#FFFFFF;fill-opacity:1;fill-rule:nonzero;stroke:none" d="m 129,168.5 c 0,0.82076 -0.0801,1.63362 -0.24019,2.43863 -0.16014,0.80498 -0.39725,1.58661 -0.71133,2.34489 -0.3141,0.75829 -0.69915,1.47866 -1.15513,2.16109 -0.45599,0.68245 -0.97417,1.31384 -1.55453,1.89421 -0.58037,0.58035 -1.21177,1.09853 -1.89421,1.55452 -0.68244,0.45599 -1.4028,0.84104 -2.16109,1.15514 -0.75828,0.31408 -1.53992,0.55119 -2.34491,0.71132 -0.80498,0.16011 -1.61786,0.24018 -2.43861,0.2402 -0.82076,-2e-5 -1.63364,-0.0801 -2.43864,-0.24022 -0.805,-0.16012 -1.58664,-0.39723 -2.34492,-0.71132 -0.75829,-0.3141 -1.47865,-0.69914 -2.16108,-1.15513 -0.68244,-0.45598 -1.31384,-0.97416 -1.89421,-1.55451 -0.58038,-0.58037 -1.09856,-1.21176 -1.55454,-1.89421 -0.45599,-0.68243 -0.84103,-1.4028 -1.15512,-2.16109 -0.3141,-0.75828 -0.5512,-1.53991 -0.71132,-2.34489 -0.16012,-0.80501 -0.24018,-1.61787 -0.24017,-2.43863 -1e-5,-0.82077 0.08,-1.63365 0.24017,-2.43864 0.16011,-0.80501 0.39722,-1.58664 0.71132,-2.34491 0.31409,-0.75829 0.69913,-1.47866 1.15512,-2.16109 0.45598,-0.68245 0.97416,-1.31384 1.55454,-1.89421 0.58037,-0.58037 1.21177,-1.09854 1.8942,-1.55454 0.68244,-0.45599 1.4028,-0.84103 2.16109,-1.15512 0.75828,-0.3141 1.53992,-0.55121 2.34492,-0.71132 C 114.86636,156.08006 115.67924,156 116.5,156 c 0.82075,0 1.63363,0.0801 2.43861,0.24017 0.80499,0.16011 1.58662,0.39722 2.34491,0.71132 0.75829,0.31409 1.47865,0.69913 2.16109,1.15512 0.68244,0.456 1.31384,0.97417 1.89421,1.55454 0.58036,0.58037 1.09854,1.21176 1.55453,1.89421 0.45598,0.68243 0.84103,1.4028 1.15513,2.16109 0.31408,0.75827 0.55119,1.5399 0.71133,2.34491 C 128.91994,166.86635 129,167.67923 129,168.5 Z" />
          <path id="path84" style="fill:#FFFFFF;fill-opacity:1;fill-rule:nonzero;stroke:none" d="m 207,168.5 c -2e-5,0.82076 -0.0801,1.63362 -0.24022,2.43863 -0.16012,0.80498 -0.39723,1.58661 -0.71132,2.34489 -0.3141,0.75829 -0.69914,1.47866 -1.15513,2.16109 -0.45598,0.68245 -0.97414,1.31384 -1.55451,1.89421 -0.58037,0.58035 -1.21178,1.09853 -1.89421,1.55452 -0.68245,0.45599 -1.4028,0.84104 -2.16109,1.15514 -0.75828,0.31408 -1.53993,0.55119 -2.34491,0.71132 -0.80497,0.16011 -1.61785,0.24018 -2.43861,0.2402 -0.82077,-2e-5 -1.63365,-0.0801 -2.43864,-0.24022 -0.805,-0.16012 -1.58664,-0.39723 -2.34493,-0.71132 -0.75828,-0.3141 -1.47865,-0.69914 -2.16109,-1.15513 -0.68243,-0.45598 -1.31382,-0.97416 -1.89419,-1.55451 -0.58037,-0.58037 -1.09856,-1.21176 -1.55455,-1.89421 -0.45598,-0.68243 -0.84102,-1.4028 -1.15511,-2.16109 -0.3141,-0.75828 -0.55121,-1.53991 -0.71133,-2.34489 -0.16011,-0.80501 -0.24018,-1.61787 -0.24016,-2.43863 -2e-5,-0.82077 0.08,-1.63365 0.24016,-2.43864 0.16011,-0.80501 0.39721,-1.58664 0.71132,-2.34491 0.31408,-0.75829 0.69912,-1.47866 1.15512,-2.16109 0.45599,-0.68245 0.97418,-1.31384 1.55455,-1.89421 0.58037,-0.58037 1.21176,-1.09854 1.89419,-1.55454 0.68244,-0.45599 1.40281,-0.84103 2.16109,-1.15512 0.75829,-0.3141 1.53993,-0.55121 2.34493,-0.71132 C 192.86635,156.08006 193.67923,156 194.5,156 c 0.82076,0 1.63364,0.0801 2.43861,0.24017 0.80498,0.16011 1.58661,0.39722 2.3449,0.71132 0.75828,0.31409 1.47865,0.69913 2.1611,1.15512 0.68243,0.456 1.31384,0.97417 1.89421,1.55454 0.58037,0.58037 1.09854,1.21176 1.55452,1.89421 0.45599,0.68243 0.84104,1.4028 1.15514,2.16109 0.31407,0.75827 0.55118,1.5399 0.7113,2.34491 0.16014,0.80499 0.2402,1.61787 0.24022,2.43864 z" />
          <path id="path86" style="fill:#FFFFFF;fill-opacity:1;fill-rule:nonzero;stroke:none" d="m 311,168.5 c -3e-5,0.82076 -0.0801,1.63362 -0.2402,2.43863 -0.16013,0.80498 -0.39722,1.58661 -0.71131,2.34489 -0.31411,0.75829 -0.69916,1.47866 -1.15512,2.16109 -0.45602,0.68245 -0.97421,1.31384 -1.55456,1.89421 -0.58039,0.58035 -1.2118,1.09853 -1.89423,1.55452 -0.68243,0.45599 -1.4028,0.84104 -2.16107,1.15514 -0.75827,0.31408 -1.53992,0.55119 -2.34494,0.71132 -0.80496,0.16011 -1.61783,0.24018 -2.43857,0.2402 -0.82077,-2e-5 -1.63364,-0.0801 -2.43866,-0.24022 -0.80496,-0.16012 -1.58661,-0.39723 -2.34491,-0.71132 -0.75827,-0.3141 -1.47864,-0.69914 -2.16107,-1.15513 -0.68244,-0.45598 -1.31384,-0.97416 -1.8942,-1.55451 -0.58035,-0.58037 -1.09854,-1.21176 -1.55453,-1.89421 -0.45603,-0.68243 -0.84107,-1.4028 -1.15515,-2.16109 -0.31409,-0.75828 -0.55118,-1.53991 -0.71131,-2.34489 C 286.08005,170.13362 286,169.32076 286,168.5 c 0,-0.82077 0.0801,-1.63365 0.24017,-2.43864 0.16013,-0.80501 0.39722,-1.58664 0.71131,-2.34491 0.31408,-0.75829 0.69912,-1.47866 1.15515,-2.16109 0.45599,-0.68245 0.97418,-1.31384 1.55453,-1.89421 0.58036,-0.58037 1.21176,-1.09854 1.8942,-1.55454 0.68243,-0.45599 1.4028,-0.84103 2.16107,-1.15512 0.7583,-0.3141 1.53995,-0.55121 2.34491,-0.71132 C 296.86636,156.08006 297.67923,156 298.5,156 c 0.82074,0 1.63361,0.0801 2.43857,0.24017 0.80502,0.16011 1.58667,0.39722 2.34494,0.71132 0.75827,0.31409 1.47864,0.69913 2.16107,1.15512 0.68243,0.456 1.31384,0.97417 1.89423,1.55454 0.58035,0.58037 1.09854,1.21176 1.55453,1.89421 0.45599,0.68243 0.84104,1.4028 1.15515,2.16109 0.31409,0.75827 0.55118,1.5399 0.71131,2.34491 0.16012,0.80499 0.24017,1.61787 0.2402,2.43864 z" />
          <path id="path88" style="fill:#FFFFFF;fill-opacity:1;fill-rule:nonzero;stroke:none" d="m 25,194.5 c -2e-6,0.82076 -0.08006,1.63364 -0.240185,2.43861 -0.160124,0.80498 -0.397232,1.58661 -0.711324,2.3449 -0.314093,0.75828 -0.699133,1.47865 -1.155123,2.1611 -0.455992,0.68243 -0.974169,1.31384 -1.554535,1.89421 -0.580366,0.58037 -1.211769,1.09854 -1.894209,1.55452 -0.682438,0.45599 -1.4028,0.84104 -2.161085,1.15514 -0.758284,0.31407 -1.539922,0.55118 -2.344912,0.7113 -0.80499,0.16014 -1.617865,0.2402 -2.438627,0.24022 -0.820762,-2e-5 -1.633638,-0.0801 -2.438629,-0.24022 -0.8049919,-0.16012 -1.58663,-0.39723 -2.3449141,-0.71132 -0.7582851,-0.3141 -1.4786468,-0.69914 -2.1610851,-1.15513 -0.6824384,-0.45598 -1.3138409,-0.97414 -1.8942068,-1.55451 -0.5803661,-0.58037 -1.0985446,-1.21178 -1.5545354,-1.89421 -0.4559908,-0.68245 -0.841032,-1.4028 -1.15512388,-2.16109 C 0.63741386,198.52524 0.40030661,197.74359 0.24018396,196.93861 0.08006132,196.13364 0,195.32076 0,194.5 c 0,-0.82077 0.08006132,-1.63365 0.24018396,-2.43864 0.16012265,-0.805 0.3972299,-1.58664 0.71132176,-2.34493 0.31409188,-0.75828 0.69913308,-1.47865 1.15512388,-2.16109 0.4559908,-0.68243 0.9741693,-1.31382 1.5545354,-1.89419 0.5803659,-0.58037 1.2117679,-1.09854 1.8942063,-1.55455 0.6824384,-0.45598 1.4027996,-0.84101 2.1610846,-1.15511 0.7582851,-0.3141 1.5399223,-0.55121 2.3449141,-0.71132 C 10.866362,182.08006 11.679238,182 12.5,182 c 0.820762,0 1.633637,0.0801 2.438627,0.24017 0.80499,0.16011 1.586628,0.39722 2.344912,0.71132 0.758285,0.3141 1.478647,0.69913 2.161085,1.15511 0.68244,0.45601 1.313843,0.97418 1.894209,1.55455 0.580366,0.58037 1.098543,1.21176 1.554535,1.89419 0.45599,0.68244 0.84103,1.40281 1.155123,2.16109 0.314092,0.75829 0.551198,1.53993 0.711322,2.34493 0.160124,0.80499 0.240185,1.61787 0.240187,2.43864 z" />
          <path id="path90" style="fill:#FFFFFF;fill-opacity:1;fill-rule:nonzero;stroke:none" d="m 103,194.5 c -1e-5,0.82076 -0.0801,1.63364 -0.24019,2.43861 -0.16012,0.80498 -0.39723,1.58661 -0.71132,2.3449 -0.3141,0.75828 -0.69914,1.47865 -1.15513,2.1611 -0.45599,0.68243 -0.974171,1.31384 -1.554531,1.89421 -0.580376,0.58037 -1.211777,1.09854 -1.894218,1.55452 -0.682442,0.45599 -1.402802,0.84104 -2.16108,1.15514 -0.758285,0.31407 -1.539924,0.55118 -2.344909,0.7113 -0.804986,0.16014 -1.617859,0.2402 -2.438622,0.24022 -0.82077,-2e-5 -1.633652,-0.0801 -2.438644,-0.24022 -0.804985,-0.16012 -1.586625,-0.39723 -2.34491,-0.71132 -0.758293,-0.3141 -1.478653,-0.69914 -2.161087,-1.15513 -0.682442,-0.45598 -1.313843,-0.97414 -1.894203,-1.55451 -0.580368,-0.58037 -1.098549,-1.21178 -1.554535,-1.89421 -0.455994,-0.68245 -0.841034,-1.4028 -1.155129,-2.16109 -0.314094,-0.75828 -0.551201,-1.53993 -0.711319,-2.34491 C 78.080055,196.13364 77.999992,195.32076 78,194.5 c -8e-6,-0.82077 0.08006,-1.63365 0.240173,-2.43864 0.160118,-0.805 0.397225,-1.58664 0.711319,-2.34493 0.314095,-0.75828 0.699135,-1.47865 1.155129,-2.16109 0.455986,-0.68243 0.974167,-1.31382 1.554535,-1.89419 0.58036,-0.58037 1.211761,-1.09854 1.894195,-1.55455 0.682442,-0.45598 1.402802,-0.84101 2.161095,-1.15511 0.758285,-0.3141 1.539925,-0.55121 2.344917,-0.71132 C 88.866348,182.08006 89.67923,182 90.5,182 c 0.820763,0 1.633636,0.0801 2.438622,0.24017 0.804985,0.16011 1.586624,0.39722 2.344909,0.71132 0.758278,0.3141 1.478638,0.69913 2.16108,1.15511 0.682441,0.45601 1.313842,0.97418 1.894218,1.55455 0.58036,0.58037 1.098541,1.21176 1.554531,1.89419 0.45599,0.68244 0.84103,1.40281 1.15513,2.16109 0.31409,0.75829 0.5512,1.53993 0.71132,2.34493 0.16012,0.80499 0.24018,1.61787 0.24019,2.43864 z" />
          <path id="path92" style="fill:#FFFFFF;fill-opacity:1;fill-rule:nonzero;stroke:none" d="m 233,194.5 c -2e-5,0.82076 -0.0801,1.63364 -0.2402,2.43861 -0.16013,0.80498 -0.39724,1.58661 -0.71134,2.3449 -0.3141,0.75828 -0.69914,1.47865 -1.15512,2.1611 -0.45599,0.68243 -0.97417,1.31384 -1.55453,1.89421 -0.58037,0.58037 -1.21178,1.09854 -1.89423,1.55452 -0.68242,0.45599 -1.40279,0.84104 -2.16107,1.15514 -0.75829,0.31407 -1.53992,0.55118 -2.34491,0.7113 -0.80498,0.16014 -1.61784,0.2402 -2.4386,0.24022 -0.82076,-2e-5 -1.63364,-0.0801 -2.43864,-0.24022 -0.805,-0.16012 -1.58664,-0.39723 -2.34493,-0.71132 -0.75828,-0.3141 -1.47865,-0.69914 -2.1611,-1.15513 -0.68244,-0.45598 -1.31383,-0.97414 -1.8942,-1.55451 -0.58037,-0.58037 -1.09855,-1.21178 -1.55453,-1.89421 -0.456,-0.68245 -0.84104,-1.4028 -1.15512,-2.16109 -0.31411,-0.75828 -0.5512,-1.53993 -0.71131,-2.34491 -0.16014,-0.80497 -0.24019,-1.61785 -0.24017,-2.43861 -2e-5,-0.82077 0.08,-1.63365 0.24016,-2.43864 0.16011,-0.805 0.39721,-1.58664 0.71132,-2.34493 0.31408,-0.75828 0.69912,-1.47865 1.15512,-2.16109 0.45598,-0.68243 0.97416,-1.31382 1.55453,-1.89419 0.58037,-0.58037 1.21176,-1.09854 1.8942,-1.55455 0.68245,-0.45598 1.40282,-0.84101 2.1611,-1.15511 0.75829,-0.3141 1.53993,-0.55121 2.34493,-0.71132 C 218.86636,182.08006 219.67924,182 220.5,182 c 0.82076,0 1.63364,0.0801 2.43861,0.24017 0.80498,0.16011 1.58661,0.39722 2.3449,0.71132 0.75828,0.3141 1.47865,0.69913 2.16107,1.15511 0.68245,0.45601 1.31386,0.97418 1.89423,1.55455 0.58036,0.58037 1.09854,1.21176 1.55452,1.89419 0.45599,0.68244 0.84103,1.40281 1.15513,2.16109 0.3141,0.75829 0.55121,1.53993 0.71134,2.34493 0.16012,0.80499 0.24018,1.61787 0.2402,2.43864 z" />
          <path id="path94" style="fill:#FFFFFF;fill-opacity:1;fill-rule:nonzero;stroke:none" d="m 311,194.5 c -3e-5,0.82076 -0.0801,1.63364 -0.2402,2.43861 -0.16013,0.80498 -0.39722,1.58661 -0.71131,2.3449 -0.31411,0.75828 -0.69916,1.47865 -1.15512,2.1611 -0.45602,0.68243 -0.97421,1.31384 -1.55456,1.89421 -0.58039,0.58037 -1.2118,1.09854 -1.89423,1.55452 -0.68243,0.45599 -1.4028,0.84104 -2.16107,1.15514 -0.75827,0.31407 -1.53992,0.55118 -2.34494,0.7113 -0.80496,0.16014 -1.61783,0.2402 -2.43857,0.24022 -0.82077,-2e-5 -1.63364,-0.0801 -2.43866,-0.24022 -0.80496,-0.16012 -1.58661,-0.39723 -2.34491,-0.71132 -0.75827,-0.3141 -1.47864,-0.69914 -2.16107,-1.15513 -0.68244,-0.45598 -1.31384,-0.97414 -1.8942,-1.55451 -0.58035,-0.58037 -1.09854,-1.21178 -1.55453,-1.89421 -0.45603,-0.68245 -0.84107,-1.4028 -1.15515,-2.16109 -0.31409,-0.75828 -0.55118,-1.53993 -0.71131,-2.34491 C 286.08005,196.13364 286,195.32076 286,194.5 c 0,-0.82077 0.0801,-1.63365 0.24017,-2.43864 0.16013,-0.805 0.39722,-1.58664 0.71131,-2.34493 0.31408,-0.75828 0.69912,-1.47865 1.15515,-2.16109 0.45599,-0.68243 0.97418,-1.31382 1.55453,-1.89419 0.58036,-0.58037 1.21176,-1.09854 1.8942,-1.55455 0.68243,-0.45598 1.4028,-0.84101 2.16107,-1.15511 0.7583,-0.3141 1.53995,-0.55121 2.34491,-0.71132 C 296.86636,182.08006 297.67923,182 298.5,182 c 0.82074,0 1.63361,0.0801 2.43857,0.24017 0.80502,0.16011 1.58667,0.39722 2.34494,0.71132 0.75827,0.3141 1.47864,0.69913 2.16107,1.15511 0.68243,0.45601 1.31384,0.97418 1.89423,1.55455 0.58035,0.58037 1.09854,1.21176 1.55453,1.89419 0.45599,0.68244 0.84104,1.40281 1.15515,2.16109 0.31409,0.75829 0.55118,1.53993 0.71131,2.34493 0.16012,0.80499 0.24017,1.61787 0.2402,2.43864 z" />
          <path id="path96" style="fill:#FFFFFF;fill-opacity:1;fill-rule:nonzero;stroke:none" d="m 51,220.5 c 0,0.82076 -0.08006,1.63364 -0.240185,2.43861 -0.160122,0.80498 -0.397232,1.58661 -0.711323,2.3449 -0.314094,0.75828 -0.699138,1.47865 -1.155128,2.16107 -0.45599,0.68245 -0.974167,1.31386 -1.554531,1.89423 -0.580368,0.58036 -1.211773,1.09854 -1.894211,1.55452 -0.682442,0.45599 -1.402805,0.84103 -2.161087,1.15513 -0.758286,0.3141 -1.539921,0.55121 -2.34491,0.71134 -0.804989,0.16012 -1.617866,0.24018 -2.438625,0.2402 -0.820766,-2e-5 -1.633644,-0.0801 -2.438633,-0.2402 -0.804993,-0.16013 -1.586632,-0.39724 -2.344917,-0.71134 -0.758286,-0.3141 -1.478646,-0.69914 -2.161083,-1.15512 -0.682438,-0.45599 -1.313839,-0.97417 -1.894206,-1.55453 -0.580366,-0.58037 -1.098547,-1.21178 -1.554538,-1.89423 -0.45599,-0.68242 -0.84103,-1.40279 -1.155123,-2.16107 -0.314093,-0.75829 -0.551199,-1.53992 -0.711319,-2.34491 C 26.080057,222.13362 25.999998,221.32076 26,220.5 c -2e-6,-0.82076 0.08006,-1.63364 0.240179,-2.43864 0.160124,-0.805 0.39723,-1.58664 0.711323,-2.34493 0.314091,-0.75828 0.699131,-1.47865 1.155123,-2.1611 0.455991,-0.68244 0.97417,-1.31383 1.554536,-1.8942 0.580367,-0.58037 1.211768,-1.09855 1.894204,-1.55453 0.682436,-0.456 1.402799,-0.84104 2.161085,-1.15512 0.758285,-0.31407 1.539924,-0.55118 2.344917,-0.71131 C 36.866356,208.08006 37.679234,208 38.5,208 c 0.820759,0 1.633636,0.0801 2.438625,0.24019 0.804989,0.16011 1.586624,0.39722 2.34491,0.71129 0.758282,0.31408 1.478645,0.69912 2.161087,1.15512 0.682438,0.45598 1.313843,0.97416 1.894211,1.55453 0.580364,0.58037 1.098541,1.21176 1.554531,1.8942 0.45599,0.68245 0.841034,1.40282 1.155125,2.1611 0.31409,0.75829 0.5512,1.53993 0.711322,2.34493 C 50.919937,218.86636 51,219.67924 51,220.5 Z" />
          <path id="path98" style="fill:#FFFFFF;fill-opacity:1;fill-rule:nonzero;stroke:none" d="m 77,220.5 c 0,0.82076 -0.08006,1.63364 -0.240189,2.43861 -0.160125,0.80498 -0.397232,1.58661 -0.711326,2.3449 -0.314095,0.75828 -0.699135,1.47865 -1.155121,2.16107 -0.456001,0.68245 -0.974175,1.31386 -1.554535,1.89423 -0.580368,0.58036 -1.211769,1.09854 -1.894203,1.55452 -0.682442,0.45599 -1.402809,0.84103 -2.161095,1.15513 -0.758278,0.3141 -1.539917,0.55121 -2.344902,0.71134 -0.804993,0.16012 -1.617866,0.24018 -2.438629,0.2402 -0.820763,-2e-5 -1.63364,-0.0801 -2.438633,-0.2402 -0.804993,-0.16013 -1.586632,-0.39724 -2.344917,-0.71134 -0.758286,-0.3141 -1.478646,-0.69914 -2.161083,-1.15512 -0.682442,-0.45599 -1.313843,-0.97417 -1.894207,-1.55453 -0.580369,-0.58037 -1.098549,-1.21178 -1.554539,-1.89423 -0.45599,-0.68242 -0.841034,-1.40279 -1.155125,-2.16107 -0.314091,-0.75829 -0.551197,-1.53992 -0.711319,-2.34491 C 52.080055,222.13362 51.999996,221.32076 52,220.5 c -4e-6,-0.82076 0.08006,-1.63364 0.240177,-2.43864 0.160122,-0.805 0.397232,-1.58664 0.711323,-2.34493 0.314091,-0.75828 0.699131,-1.47865 1.155121,-2.1611 0.45599,-0.68244 0.97417,-1.31383 1.554539,-1.8942 0.580364,-0.58037 1.211765,-1.09855 1.894203,-1.55453 0.682438,-0.456 1.402797,-0.84104 2.161083,-1.15512 0.758289,-0.31407 1.539928,-0.55118 2.344917,-0.71131 C 62.86636,208.08006 63.679237,208 64.5,208 c 0.820763,0 1.633636,0.0801 2.438629,0.24019 0.804985,0.16011 1.586624,0.39722 2.344902,0.71129 0.758286,0.31408 1.478653,0.69912 2.161095,1.15512 0.682434,0.45598 1.313835,0.97416 1.894203,1.55453 0.58036,0.58037 1.098534,1.21176 1.554535,1.8942 0.455986,0.68245 0.841026,1.40282 1.155121,2.1611 0.314094,0.75829 0.551201,1.53993 0.711326,2.34493 C 76.919937,218.86636 77,219.67924 77,220.5 Z" />
          <path id="path100" style="fill:#FFFFFF;fill-opacity:1;fill-rule:nonzero;stroke:none" d="m 259,220.5 c 0,0.82076 -0.0801,1.63364 -0.2402,2.43861 -0.16013,0.80498 -0.39725,1.58661 -0.71134,2.3449 -0.31408,0.75828 -0.69913,1.47865 -1.15512,2.16107 -0.45599,0.68245 -0.97417,1.31386 -1.55452,1.89423 -0.58037,0.58036 -1.21178,1.09854 -1.89422,1.55452 -0.68244,0.45599 -1.40279,0.84103 -2.16108,1.15513 -0.75828,0.3141 -1.53991,0.55121 -2.34492,0.71134 -0.80498,0.16012 -1.61784,0.24018 -2.4386,0.2402 -0.82076,-2e-5 -1.63364,-0.0801 -2.43863,-0.2402 -0.80501,-0.16013 -1.58665,-0.39724 -2.34494,-0.71134 -0.75828,-0.3141 -1.47865,-0.69914 -2.1611,-1.15512 -0.68244,-0.45599 -1.31383,-0.97417 -1.89418,-1.55453 -0.58037,-0.58037 -1.09856,-1.21178 -1.55455,-1.89423 -0.456,-0.68242 -0.84104,-1.40279 -1.15512,-2.16107 -0.31411,-0.75829 -0.5512,-1.53992 -0.71131,-2.34491 -0.16012,-0.80498 -0.24019,-1.61784 -0.24017,-2.4386 -2e-5,-0.82076 0.08,-1.63364 0.24016,-2.43864 0.16011,-0.805 0.39721,-1.58664 0.71132,-2.34493 0.31408,-0.75828 0.69912,-1.47865 1.1551,-2.1611 0.45601,-0.68244 0.9742,-1.31383 1.55457,-1.8942 0.58035,-0.58037 1.21174,-1.09855 1.89418,-1.55453 0.68245,-0.456 1.40282,-0.84104 2.1611,-1.15512 0.75829,-0.31407 1.53993,-0.55118 2.34494,-0.71131 C 244.86636,208.08006 245.67924,208 246.5,208 c 0.82076,0 1.63362,0.0801 2.4386,0.24019 0.80499,0.16011 1.58662,0.39722 2.34491,0.71129 0.75828,0.31408 1.47865,0.69912 2.16109,1.15512 0.68244,0.45598 1.31385,0.97416 1.89422,1.55453 0.58035,0.58037 1.09853,1.21176 1.55452,1.8942 0.45599,0.68245 0.84104,1.40282 1.15512,2.1611 0.31409,0.75829 0.55121,1.53993 0.71134,2.34493 0.16012,0.805 0.2402,1.61788 0.2402,2.43864 z" />
          <path id="path102" style="fill:#FFFFFF;fill-opacity:1;fill-rule:nonzero;stroke:none" d="m 285,220.5 c 0,0.82076 -0.0801,1.63364 -0.24023,2.43861 -0.1601,0.80498 -0.39719,1.58661 -0.71131,2.3449 -0.31408,0.75828 -0.69913,1.47865 -1.15509,2.16107 -0.45599,0.68245 -0.97418,1.31386 -1.55453,1.89423 -0.58039,0.58036 -1.2118,1.09854 -1.89423,1.55452 -0.68243,0.45599 -1.4028,0.84103 -2.16107,1.15513 -0.75827,0.3141 -1.53992,0.55121 -2.34491,0.71134 -0.80499,0.16012 -1.61786,0.24018 -2.43863,0.2402 -0.82077,-2e-5 -1.63367,-0.0801 -2.43863,-0.2402 -0.80502,-0.16013 -1.58667,-0.39724 -2.34494,-0.71134 -0.75827,-0.3141 -1.47864,-0.69914 -2.16107,-1.15512 -0.68244,-0.45599 -1.31384,-0.97417 -1.8942,-1.55453 -0.58038,-0.58037 -1.09857,-1.21178 -1.55456,-1.89423 -0.456,-0.68242 -0.84104,-1.40279 -1.15512,-2.16107 -0.31409,-0.75829 -0.55121,-1.53992 -0.71134,-2.34491 -0.16012,-0.80498 -0.24017,-1.61784 -0.24014,-2.4386 -3e-5,-0.82076 0.08,-1.63364 0.24014,-2.43864 0.16013,-0.805 0.39725,-1.58664 0.71134,-2.34493 0.31408,-0.75828 0.69912,-1.47865 1.15515,-2.1611 0.45596,-0.68244 0.97415,-1.31383 1.55453,-1.8942 0.58036,-0.58037 1.21176,-1.09855 1.8942,-1.55453 0.68243,-0.456 1.4028,-0.84104 2.16107,-1.15512 0.75827,-0.31407 1.53992,-0.55118 2.34494,-0.71131 C 270.86633,208.08006 271.67923,208 272.5,208 c 0.82077,0 1.63364,0.0801 2.43863,0.24019 0.80499,0.16011 1.58664,0.39722 2.34491,0.71129 0.75827,0.31408 1.47864,0.69912 2.16107,1.15512 0.68243,0.45598 1.31384,0.97416 1.89423,1.55453 0.58035,0.58037 1.09854,1.21176 1.55453,1.8942 0.45596,0.68245 0.84101,1.40282 1.15509,2.1611 0.31412,0.75829 0.55121,1.53993 0.71131,2.34493 0.16015,0.805 0.24023,1.61788 0.24023,2.43864 z" />
        </g>
      </g>
    </g>
  </g>
</svg>